<?xml version="1.0" standalone="no"?>
<!DOCTYPE svg PUBLIC "-//W3C//DTD SVG 20010904//EN"
 "http://www.w3.org/TR/2001/REC-SVG-20010904/DTD/svg10.dtd">
<svg version="1.0" xmlns="http://www.w3.org/2000/svg"
 width="482.000000pt" height="517.000000pt" viewBox="0 0 482.000000 517.000000"
 preserveAspectRatio="xMidYMid meet">

<g transform="translate(0.000000,517.000000) scale(0.100000,-0.100000)"
fill="#000000" stroke="none">
<path d="M1100 4565 c0 -8 4 -15 10 -15 5 0 7 7 4 15 -4 8 -8 15 -10 15 -2 0
-4 -7 -4 -15z"/>
<path d="M3686 4565 c-3 -9 0 -15 9 -15 8 0 15 7 15 15 0 8 -4 15 -9 15 -5 0
-11 -7 -15 -15z"/>
<path d="M1255 4550 c3 -5 8 -10 11 -10 2 0 4 5 4 10 0 6 -5 10 -11 10 -5 0
-7 -4 -4 -10z"/>
<path d="M3530 4549 c0 -5 5 -7 10 -4 6 3 10 8 10 11 0 2 -4 4 -10 4 -5 0 -10
-5 -10 -11z"/>
<path d="M1195 4540 c-3 -6 1 -7 9 -4 18 7 21 14 7 14 -6 0 -13 -4 -16 -10z"/>
<path d="M2305 4544 c-16 -2 -66 -9 -110 -15 -663 -88 -1198 -616 -1301 -1284
-21 -136 -18 -340 7 -485 77 -452 372 -858 787 -1082 52 -28 96 -57 99 -65 3
-8 11 -12 18 -9 7 2 30 -7 50 -21 21 -14 35 -21 31 -14 -10 16 10 14 84 -10
250 -78 616 -78 870 1 79 24 84 24 75 3 -4 -12 3 -9 22 10 16 15 39 27 51 27
11 0 25 6 29 13 4 7 55 39 113 71 136 76 206 126 312 226 188 175 320 378 408
628 23 65 37 91 47 88 7 -3 13 -1 13 3 0 5 -5 11 -12 13 -8 3 -6 31 8 104 26
135 26 419 0 549 -39 200 -133 425 -248 593 -62 90 -204 241 -303 322 -203
165 -463 279 -730 319 -81 12 -276 21 -320 15z m-15 -99 c0 -20 -5 -25 -25
-25 -20 0 -25 5 -25 25 0 20 5 25 25 25 20 0 25 -5 25 -25z m-104 -20 c3 -14
12 -25 19 -25 23 0 28 -20 11 -39 -9 -10 -14 -24 -12 -32 2 -8 7 -26 10 -40 3
-16 15 -29 27 -32 19 -5 20 -2 15 31 -6 39 -9 88 -7 110 1 8 10 12 24 10 18
-2 23 -11 29 -48 3 -25 7 -66 7 -91 l1 -47 -56 -7 c-68 -8 -79 0 -95 72 -7 30
-19 57 -26 60 -16 6 -18 43 -2 43 6 0 9 7 5 15 -5 15 18 45 35 45 5 0 11 -11
15 -25z m279 -21 c40 -19 60 -61 51 -109 -13 -67 -108 -95 -160 -46 -21 20
-26 34 -26 71 0 50 14 70 60 89 34 13 37 13 75 -5z m227 -25 c9 -5 19 -17 22
-27 6 -17 -16 -147 -26 -157 -2 -2 -14 -2 -26 2 -20 5 -22 10 -15 42 4 20 8
52 8 71 0 31 -3 35 -25 35 -22 0 -27 -6 -40 -62 -13 -54 -18 -63 -37 -63 -31
0 -34 10 -19 71 8 30 17 67 20 82 7 28 7 28 64 21 31 -3 65 -10 74 -15z m395
-71 c15 -12 6 -38 -13 -38 -7 0 -38 11 -68 24 -39 17 -57 21 -65 13 -20 -20
-11 -33 44 -60 52 -25 68 -48 45 -62 -5 -3 -37 6 -71 21 -51 23 -62 25 -70 13
-17 -27 -8 -39 51 -69 57 -29 76 -55 47 -66 -12 -4 -187 71 -187 81 0 2 27 53
61 114 l60 109 77 -35 c42 -20 82 -40 89 -45z m-1007 52 c10 -5 30 -42 45 -81
23 -59 25 -73 14 -80 -8 -5 -20 -7 -27 -4 -8 3 -23 -2 -35 -10 -25 -17 -70
-20 -98 -5 -15 9 -19 7 -19 -5 0 -9 -11 -27 -25 -40 -70 -71 -196 24 -159 120
8 20 56 45 87 45 14 0 35 -8 48 -19 l23 -18 -22 -12 c-16 -9 -27 -9 -43 -1
-15 9 -24 8 -35 -1 -21 -17 -17 -47 10 -74 30 -30 66 -24 66 10 0 15 8 26 19
30 11 3 26 16 34 29 9 13 32 31 51 40 39 18 47 36 18 36 -10 0 -28 -11 -40
-25 -28 -32 -52 -33 -52 -2 0 51 90 94 140 67z m-313 -211 c38 -49 49 -69 40
-78 -6 -6 -14 -11 -19 -11 -4 0 -18 -11 -32 -25 -43 -43 -76 -34 -135 34 -28
32 -51 63 -51 69 0 10 39 28 44 20 1 -1 19 -24 40 -50 39 -51 56 -58 76 -33
13 15 10 20 -55 112 -7 10 -5 18 9 29 11 8 23 11 26 7 4 -5 29 -38 57 -74z
m1383 46 c7 -8 17 -15 23 -15 19 0 57 -43 57 -63 0 -18 -70 -120 -91 -132 -12
-8 -39 6 -39 19 0 7 16 31 35 53 42 50 46 83 10 83 -16 0 -36 -14 -62 -45 -36
-43 -65 -56 -78 -35 -8 13 101 150 119 150 8 0 19 -7 26 -15z m-584 -15 c355
-62 591 -208 806 -500 44 -59 117 -211 143 -295 132 -433 19 -887 -297 -1191
-87 -84 -177 -149 -273 -197 -68 -34 -71 -34 -108 -20 -20 8 -37 22 -37 30 0
8 -10 23 -22 32 l-21 18 36 55 c21 30 37 58 37 62 0 16 -31 3 -50 -21 -19 -24
-28 -28 -68 -26 -26 1 -52 -3 -60 -9 -16 -13 -18 -11 -26 29 -6 27 -5 31 12
27 22 -6 33 6 54 64 l16 42 -32 25 c-38 29 -53 31 -84 9 -18 -12 -22 -25 -22
-65 0 -27 -4 -49 -9 -49 -6 0 -20 -18 -32 -40 -35 -62 -37 -59 -55 88 -5 44
-3 52 10 52 9 0 16 8 16 21 0 28 56 157 84 194 24 30 68 48 153 61 24 4 40 11
37 16 -4 5 9 25 27 44 18 19 28 34 23 34 -6 0 -24 -17 -41 -38 -26 -32 -40
-39 -94 -51 -43 -8 -65 -9 -67 -2 -6 18 -57 -52 -90 -121 -41 -90 -56 -89 -49
5 3 46 2 64 -4 50 -5 -15 -16 -23 -31 -22 -14 1 -17 3 -7 6 9 2 21 28 31 66
56 223 83 273 171 316 33 17 36 20 21 29 -15 8 -25 2 -55 -31 -20 -23 -41 -38
-45 -34 -5 4 3 40 16 80 25 71 26 73 83 100 31 15 57 32 57 37 0 14 -17 12
-23 -3 -5 -14 -76 -42 -85 -33 -7 8 28 35 47 36 7 0 26 11 42 25 16 13 36 22
43 19 9 -3 15 5 18 25 3 21 0 31 -9 31 -7 0 -13 -8 -13 -17 0 -15 -2 -16 -10
-3 -8 12 -18 6 -55 -34 -25 -27 -47 -47 -50 -45 -8 9 39 149 57 169 20 21 38
26 38 10 0 -23 51 -7 104 32 60 44 64 53 41 84 -19 25 -19 44 0 44 8 0 15 5
15 10 0 12 43 30 80 34 13 2 26 8 27 13 3 9 -28 6 -93 -10 -6 -2 -19 -11 -29
-20 -13 -14 -20 -15 -31 -6 -21 17 -27 7 -51 -89 -12 -48 -22 -79 -22 -69 -1
12 -5 16 -13 11 -9 -6 -9 -3 0 9 16 18 8 37 -15 37 -9 0 -13 6 -9 15 3 8 1 15
-4 15 -6 0 -10 -3 -10 -7 0 -5 -3 -19 -7 -33 -6 -22 -5 -23 9 -12 9 7 19 9 22
4 6 -10 -13 -28 -52 -50 -21 -12 -23 -11 -19 5 3 10 15 55 27 99 18 70 29 90
73 139 52 59 96 85 142 85 21 0 25 4 21 18 -4 12 5 34 25 61 26 36 34 42 57
37 15 -3 21 -3 15 0 -22 9 -14 33 12 40 14 3 25 13 25 20 0 11 -4 12 -17 5
-33 -19 -101 -88 -127 -130 -15 -22 -33 -41 -42 -41 -28 0 -89 -38 -112 -69
-12 -17 -29 -31 -38 -31 -16 0 -34 -39 -34 -74 0 -37 -30 -127 -40 -121 -6 4
-10 55 -10 115 0 67 -4 111 -11 115 -7 5 -8 -18 -3 -76 6 -77 6 -83 -9 -70
-10 7 -17 19 -17 26 0 16 -28 40 -37 32 -3 -4 11 -25 31 -47 35 -39 36 -42 36
-123 0 -83 -18 -168 -37 -174 -11 -4 -20 43 -28 138 -5 58 -5 57 -15 34 -7
-19 -8 -19 -18 5 -6 14 -22 40 -36 59 -14 19 -26 40 -26 47 0 13 -29 29 -45
25 -5 -2 -7 1 -3 5 5 4 -3 26 -16 48 -28 48 -53 150 -71 291 -7 55 -13 90 -14
78 0 -12 -6 -23 -12 -25 -9 -3 -9 -10 0 -26 6 -12 11 -37 10 -54 -2 -18 2 -42
8 -53 14 -27 26 -95 16 -95 -4 0 -21 21 -38 45 -16 25 -33 45 -36 45 -4 0 18
-37 48 -82 46 -69 52 -83 38 -88 -14 -5 -12 -8 9 -19 24 -13 54 -66 43 -77 -3
-3 -15 0 -27 6 -22 12 -123 9 -186 -5 -24 -5 -37 -2 -61 19 -17 14 -34 37 -37
51 -4 14 -12 24 -19 22 -17 -3 -57 121 -50 153 6 22 4 23 -10 12 -14 -12 -16
-7 -22 43 -4 32 -5 79 -2 106 4 31 2 47 -3 44 -6 -4 -10 -13 -10 -21 0 -11 -6
-13 -22 -8 -26 8 -36 19 -79 87 -31 48 -43 60 -32 31 5 -14 3 -15 -15 -5 -11
6 -24 16 -27 21 -11 18 -23 11 -18 -10 3 -11 9 -17 14 -14 9 5 69 -26 69 -36
0 -3 20 -29 44 -59 36 -43 48 -70 65 -137 25 -98 26 -113 9 -96 -14 14 -28 16
-28 4 0 -5 11 -14 25 -20 27 -13 59 -67 51 -88 -3 -8 1 -14 9 -14 8 0 15 -4
15 -10 0 -13 52 -65 79 -79 11 -7 21 -15 21 -19 0 -5 -20 -24 -45 -42 -45 -34
-75 -78 -75 -109 0 -9 9 2 21 24 26 49 58 85 76 85 8 0 16 6 19 14 9 22 98 56
148 56 82 0 197 -76 213 -140 3 -14 14 -36 23 -50 10 -14 23 -57 29 -96 11
-62 10 -78 -7 -140 -11 -38 -27 -87 -37 -109 l-18 -40 -8 40 c-4 22 -11 66
-14 98 -4 31 -11 55 -16 52 -5 -4 -9 5 -9 19 0 13 -6 31 -13 38 -33 33 -39
114 -13 157 4 6 1 11 -8 11 -8 0 -17 13 -21 30 -6 27 -21 47 -30 38 -2 -1 2
-36 9 -75 11 -63 10 -75 -3 -88 -10 -10 -11 -15 -3 -15 15 0 61 -72 73 -114 5
-17 19 -77 30 -134 19 -93 20 -106 6 -140 -8 -20 -20 -74 -27 -119 -8 -46 -17
-83 -21 -83 -14 0 -30 78 -23 107 6 27 6 27 -9 8 l-16 -20 -6 20 c-4 11 -10
29 -15 41 -4 11 -4 28 2 37 7 13 0 26 -29 58 -21 23 -50 47 -65 55 -20 10 -28
23 -30 49 -2 20 -7 34 -13 33 -5 -2 -9 -13 -7 -26 3 -21 1 -21 -42 10 -25 18
-45 36 -45 39 -1 4 15 14 34 23 19 9 35 22 35 29 0 18 -46 127 -59 140 -8 8
-19 3 -43 -20 l-31 -32 27 -61 c15 -34 25 -64 22 -68 -4 -3 -19 6 -34 20 -15
14 -32 24 -39 21 -6 -2 -39 5 -73 16 -40 13 -67 17 -78 12 -9 -5 -27 -13 -40
-18 -17 -6 -4 -8 47 -8 39 0 75 -5 80 -10 6 -6 7 -24 2 -47 -5 -21 -5 -36 -1
-33 4 3 11 21 14 41 7 33 9 35 34 29 39 -9 100 -52 155 -107 47 -48 57 -77 37
-108 -6 -10 -4 -19 8 -30 9 -9 32 -34 51 -55 20 -23 36 -35 39 -27 12 38 44
-13 62 -101 12 -62 7 -86 -10 -46 -8 19 -9 13 -5 -28 3 -29 2 -53 -3 -53 -9 0
-73 152 -67 159 3 2 19 -8 35 -24 17 -16 30 -23 30 -17 0 17 -37 52 -55 52
-18 0 -165 149 -165 167 0 6 -4 15 -10 18 -5 3 -10 -2 -10 -12 0 -10 30 -49
65 -87 36 -38 65 -71 65 -73 0 -7 -94 9 -112 19 -11 5 -18 5 -18 -1 0 -6 16
-13 35 -17 20 -3 34 -11 32 -18 -6 -19 -62 -46 -113 -53 -27 -3 -56 -13 -64
-22 -13 -13 -13 -14 5 -7 11 5 43 13 70 18 28 5 70 21 95 36 25 15 53 27 63
28 20 1 49 -34 41 -48 -3 -5 1 -17 9 -26 28 -31 39 -76 38 -158 l-1 -82 34 -6
c19 -4 37 -13 40 -21 3 -8 2 -15 -3 -15 -4 0 -12 -39 -17 -87 l-9 -88 -29 57
c-16 31 -35 59 -42 62 -9 4 -14 22 -14 55 0 45 -3 52 -27 64 -30 15 -44 13
-83 -15 -22 -16 -23 -19 -11 -60 16 -54 39 -80 62 -73 17 6 17 3 7 -25 -8 -24
-14 -29 -27 -24 -9 4 -37 7 -63 6 -41 -2 -49 1 -68 28 -21 30 -50 41 -50 19 0
-7 16 -34 35 -60 41 -57 42 -65 15 -79 -11 -6 -20 -17 -20 -25 0 -8 -18 -24
-40 -35 l-40 -20 -67 30 c-268 122 -503 374 -603 647 -55 153 -73 267 -67 448
6 199 32 309 112 471 170 344 480 576 854 639 94 16 268 18 347 5z m-991 -114
l89 -83 -28 -34 c-58 -70 -111 -74 -172 -13 -42 43 -44 76 -5 114 l28 29 -23
22 c-18 17 -21 25 -13 36 6 7 17 13 23 13 6 -1 51 -38 101 -84z m1775 -21 l24
-25 21 20 c23 21 55 18 55 -5 0 -7 -41 -49 -90 -95 l-91 -82 -38 26 c-52 36
-65 67 -47 110 31 74 119 101 166 51z m-2012 -58 c8 -9 0 -26 -30 -66 -39 -51
-40 -55 -23 -67 26 -19 25 -19 65 32 23 29 41 44 54 42 31 -5 29 -21 -10 -66
-37 -43 -39 -67 -8 -79 11 -4 30 10 63 47 34 39 52 52 64 47 9 -3 17 -11 17
-16 0 -11 -110 -151 -119 -151 -16 0 -206 136 -206 147 0 18 97 142 111 143 6
0 16 -6 22 -13z m2155 -97 c43 -48 34 -92 -27 -129 -45 -28 -88 -27 -125 5
-25 20 -31 34 -31 63 0 40 14 58 65 86 40 21 84 12 118 -25z m82 -107 c5 -13
-5 -28 -37 -57 -37 -33 -40 -37 -18 -33 91 20 98 20 105 -3 4 -12 5 -23 3 -24
-1 -1 -19 -15 -38 -30 l-35 -29 56 7 c48 6 57 5 63 -10 4 -10 3 -21 -1 -24 -4
-4 -50 -13 -102 -19 -76 -10 -96 -9 -102 1 -13 20 -11 25 29 58 l37 31 -56 -7
c-48 -5 -57 -4 -63 12 -4 10 -1 23 6 30 43 40 132 114 138 114 5 0 11 -8 15
-17z m-2296 -139 c70 -26 79 -35 62 -63 -7 -11 -21 -8 -75 13 -70 28 -86 27
-86 -5 0 -16 15 -27 60 -47 57 -25 76 -51 51 -66 -10 -6 -159 49 -176 65 -6 6
-5 16 3 29 6 11 12 26 12 34 0 22 40 66 60 66 10 0 51 -12 89 -26z m2429 -119
c2 -11 8 -30 14 -42 6 -12 8 -31 5 -43 -3 -14 1 -28 14 -41 27 -27 24 -65 -5
-85 -25 -16 -118 -44 -147 -44 -9 0 -19 9 -22 20 -5 20 5 25 101 50 26 7 42
17 42 26 0 24 -25 27 -95 11 -62 -14 -66 -14 -75 3 -12 23 -7 27 73 49 109 31
69 56 -63 40 -30 -3 -35 -1 -38 17 -3 19 6 24 75 42 93 24 117 24 121 -3z
m-2506 -52 c73 -15 95 -31 68 -48 -5 -3 -10 -21 -10 -39 0 -18 -9 -44 -20 -58
-10 -14 -15 -29 -11 -34 12 -12 -5 -53 -24 -61 -9 -3 -43 -1 -76 4 -33 5 -62
6 -65 1 -7 -12 -44 -10 -44 2 0 6 -11 15 -25 20 -16 6 -25 17 -25 31 0 18 4
21 29 16 20 -4 31 -2 35 8 8 22 37 18 43 -5 4 -15 15 -20 39 -22 19 -1 42 -2
51 -2 9 -1 18 5 21 12 2 6 -3 12 -12 12 -25 0 -48 45 -44 86 2 22 -2 39 -9 41
-16 6 -27 -35 -13 -52 12 -15 5 -55 -10 -55 -5 0 -18 12 -30 27 -26 33 -21 75
12 110 26 27 23 27 120 6z m1628 -121 c0 -9 -8 -26 -17 -37 -13 -16 -15 -17
-10 -2 4 9 2 17 -2 17 -5 0 -4 11 2 24 13 26 27 25 27 -2z m936 -113 c28 -26
32 -73 9 -106 -19 -27 -87 -52 -93 -34 -3 9 -7 9 -18 0 -19 -16 -65 16 -78 55
-32 88 107 154 180 85z m-2686 -53 c0 -13 -7 -26 -15 -30 -17 -6 -21 -36 -5
-36 6 0 16 12 22 28 19 43 39 62 66 62 40 0 62 -27 62 -75 0 -44 -19 -70 -55
-77 -28 -5 -31 29 -4 51 14 11 20 24 16 34 -10 27 -23 20 -40 -23 -21 -54 -57
-71 -95 -43 -35 26 -40 70 -12 106 27 35 60 36 60 3z m1080 -100 c0 -3 -4 -8
-10 -11 -5 -3 -10 -1 -10 4 0 6 5 11 10 11 6 0 10 -2 10 -4z m13 -35 c4 -1 3
-10 -3 -20 -7 -13 -7 -21 0 -24 6 -3 5 -4 -2 -3 -7 2 -12 13 -10 25 2 20 1 21
-14 7 -20 -21 -24 -20 -24 4 0 15 5 19 23 16 12 -3 26 -5 30 -5z m1625 -48 c1
-85 -10 -93 -120 -93 -87 0 -89 1 -86 23 3 20 9 22 63 23 93 2 95 2 95 24 0
27 -30 40 -94 40 -53 0 -73 10 -61 30 3 6 50 10 104 10 l98 0 1 -57z m-2810 0
c3 -20 -1 -23 -27 -23 -27 0 -31 4 -31 26 0 22 4 25 28 22 19 -2 28 -9 30 -25z
m217 2 c0 -19 -7 -20 -100 -20 -97 0 -100 1 -103 23 -3 23 -3 23 100 20 95 -3
103 -4 103 -23z m0 -60 c0 -11 -7 -21 -15 -22 -8 -1 -41 -5 -72 -8 -53 -6 -58
-9 -58 -31 0 -23 2 -24 81 -24 78 0 80 -1 77 -22 -2 -16 -12 -25 -33 -29 -22
-5 -24 -7 -8 -8 26 -1 73 -55 73 -83 0 -29 -52 -76 -93 -83 -50 -10 -88 6
-111 44 -15 27 -16 36 -6 61 14 33 48 49 60 29 5 -7 3 -21 -5 -32 -33 -47 37
-78 86 -39 26 22 20 52 -10 52 -20 0 -37 32 -26 50 4 6 -10 8 -37 5 -149 -15
-158 -16 -158 0 0 8 -1 18 -2 22 -2 4 11 10 27 13 25 5 30 10 28 30 -1 14 0
35 2 46 7 33 72 53 160 50 33 -1 40 -5 40 -21z m2577 -57 c8 -7 23 -18 33 -24
11 -6 21 -19 23 -28 3 -12 -4 -16 -27 -16 -17 0 -31 -4 -31 -10 0 -15 -40 -12
-46 4 -3 8 -26 17 -51 21 -37 5 -48 3 -55 -9 -5 -9 -18 -16 -28 -16 -15 0 -20
7 -20 29 0 44 20 54 92 47 37 -4 69 -2 78 4 19 12 16 12 32 -2z m-1486 -83 c3
-8 3 -19 0 -24 -10 -16 -36 -1 -36 20 0 22 28 26 36 4z m-16 -55 c0 -21 -15
-27 -25 -10 -7 12 2 30 16 30 5 0 9 -9 9 -20z m40 4 c0 -17 -22 -14 -28 4 -2
7 3 12 12 12 9 0 16 -7 16 -16z m35 -9 c0 -10 -6 -20 -12 -22 -8 -3 -13 5 -13
22 0 17 5 25 13 23 6 -3 12 -13 12 -23z m-40 -35 c3 -5 -1 -10 -9 -10 -9 0
-16 5 -16 10 0 6 4 10 9 10 6 0 13 -4 16 -10z m1380 -22 c60 -17 113 -34 117
-38 5 -3 -4 -41 -18 -83 -23 -68 -29 -77 -50 -77 -28 0 -29 10 -8 74 14 41 14
50 3 57 -27 17 -37 9 -55 -41 -18 -50 -27 -57 -53 -41 -11 7 -11 16 3 57 9 26
16 49 16 50 0 1 -15 6 -32 9 -63 14 -77 23 -71 44 7 28 18 27 148 -11z m-2420
-83 c35 -35 35 -96 -1 -124 -32 -25 -89 -37 -123 -25 -14 5 -35 26 -45 45 -17
32 -18 40 -6 68 25 63 128 84 175 36z m2327 -102 c76 -32 80 -35 72 -56 -8
-22 -18 -21 -89 7 -43 18 -63 22 -72 14 -26 -21 -12 -40 51 -68 54 -25 63 -33
59 -50 -3 -11 -10 -20 -15 -20 -10 0 -170 68 -177 75 -7 7 41 99 58 112 24 18
43 16 113 -14z m-2258 -40 c9 -22 6 -24 -122 -81 -109 -49 -112 -50 -123 -30
-6 11 -9 22 -6 24 8 8 222 102 233 103 7 1 15 -7 18 -16z m1116 -35 c0 -14
-18 -9 -24 8 -11 28 -6 39 9 20 8 -11 15 -23 15 -28z m-1082 -31 c2 -9 17 -30
33 -46 36 -36 37 -63 3 -90 -36 -29 -48 -27 -94 15 -21 20 -44 33 -50 29 -16
-10 7 -45 30 -45 11 0 24 -9 30 -19 8 -16 6 -21 -9 -26 -29 -9 -69 12 -91 47
-31 52 -26 64 48 113 70 46 95 51 100 22z m1079 -2 c9 -25 -7 -32 -23 -11 -11
15 -14 16 -14 5 0 -9 3 -19 7 -22 3 -4 8 -19 9 -33 4 -34 -10 -20 -25 25 -9
27 -8 36 1 43 20 12 38 9 45 -7z m1043 -55 c81 -47 87 -55 66 -79 -9 -10 -16
-21 -16 -26 0 -19 -45 -55 -68 -55 -32 0 -152 68 -152 86 0 28 29 26 83 -5 62
-35 82 -38 92 -14 7 20 -28 55 -83 85 -22 11 -30 22 -26 32 9 24 30 20 104
-24z m-1063 -62 c-3 -8 -6 -5 -6 6 -1 11 2 17 5 13 3 -3 4 -12 1 -19z m-953
-42 c18 -7 50 -35 71 -61 l39 -47 -21 -16 c-12 -10 -59 -46 -104 -81 l-83 -64
-48 52 c-57 62 -63 98 -22 130 15 12 32 21 39 21 7 0 16 12 19 26 4 16 19 31
39 39 40 18 32 17 71 1z m1884 -30 c66 -34 86 -89 48 -132 l-25 -29 21 -22
c21 -23 19 -53 -4 -53 -15 0 -190 140 -195 156 -2 5 14 29 35 52 42 46 72 53
120 28z m-885 -213 c3 -15 1 -36 -3 -47 -8 -19 -9 -18 -9 6 -1 15 -5 30 -11
33 -5 3 -10 18 -10 32 0 21 3 23 14 14 8 -6 16 -24 19 -38z m246 11 c12 -15
21 -31 21 -35 0 -8 -89 -1 -99 7 -8 7 30 54 44 54 7 0 23 -12 34 -26z m-525
-9 c23 -34 14 -43 -39 -43 -47 1 -48 5 -12 46 26 28 31 28 51 -3z m336 15 c0
-5 -4 -10 -10 -10 -5 0 -10 5 -10 10 0 6 5 10 10 10 6 0 10 -4 10 -10z m-90
-50 c0 -31 -17 -32 -22 -1 -3 21 -1 28 9 24 7 -3 13 -13 13 -23z m324 -29 c7
-11 -147 -49 -214 -53 -36 -2 -45 0 -48 15 -9 43 1 47 132 47 69 0 127 -4 130
-9z m-412 -36 c5 -24 3 -25 -41 -25 -46 0 -228 34 -239 44 -3 4 58 6 135 6
l141 0 4 -25z m107 -115 c16 -55 23 -60 86 -60 l50 -1 -47 -40 -47 -40 19 -54
c10 -29 16 -56 13 -59 -4 -3 -26 10 -50 30 l-43 36 -50 -37 c-28 -20 -50 -33
-50 -28 0 5 7 33 16 63 9 29 12 56 7 59 -42 28 -82 65 -78 70 3 3 21 4 40 2
59 -5 73 5 91 66 18 61 24 60 43 -7z"/>
<path d="M2392 4358 c-31 -31 4 -107 42 -92 44 17 38 104 -7 104 -13 0 -28 -5
-35 -12z"/>
<path d="M2038 4246 c-22 -16 -23 -36 -4 -36 16 0 46 26 46 41 0 13 -22 11
-42 -5z"/>
<path d="M2260 4061 c0 -5 6 -14 14 -20 12 -10 13 -8 9 8 -5 21 -23 30 -23 12z"/>
<path d="M2466 4022 c-14 -21 -26 -45 -25 -53 0 -7 7 1 15 18 8 18 23 38 34
45 21 13 27 28 11 28 -4 0 -20 -17 -35 -38z"/>
<path d="M2380 4033 c0 -12 5 -25 10 -28 13 -8 13 15 0 35 -8 12 -10 11 -10
-7z"/>
<path d="M2682 3975 c-1 -68 7 -73 22 -12 4 18 3 26 -3 23 -5 -4 -12 8 -14 26
-2 18 -4 2 -5 -37z"/>
<path d="M2037 3977 c-9 -30 -17 -61 -17 -70 0 -19 43 -51 61 -45 14 5 50 140
41 149 -4 4 -21 10 -38 13 -29 7 -31 5 -47 -47z m47 -45 c-4 -12 -11 -19 -20
-15 -17 6 -18 35 -2 51 16 16 29 -6 22 -36z"/>
<path d="M1900 4000 c6 -11 12 -20 14 -20 2 0 2 9 -1 20 -3 11 -9 20 -15 20
-5 0 -4 -9 2 -20z"/>
<path d="M1971 4004 c0 -11 3 -14 6 -6 3 7 2 16 -1 19 -3 4 -6 -2 -5 -13z"/>
<path d="M2563 4004 c-31 -16 -33 -19 -32 -68 1 -29 4 -39 6 -23 2 15 9 25 14
22 14 -10 11 -52 -7 -69 -29 -29 -14 -51 36 -51 l45 0 3 80 c2 49 -2 88 -9
102 -15 27 -15 27 -56 7z m27 -62 c0 -13 -12 -22 -22 -16 -10 6 -1 24 13 24 5
0 9 -4 9 -8z m20 -48 c0 -14 -4 -23 -10 -19 -5 3 -10 15 -10 26 0 10 5 19 10
19 6 0 10 -12 10 -26z m-20 -35 c0 -5 -7 -9 -15 -9 -15 0 -20 12 -9 23 8 8 24
-1 24 -14z"/>
<path d="M2302 3971 c-11 -7 -7 -19 20 -59 32 -50 48 -64 48 -42 0 10 -48 110
-53 110 -1 0 -8 -4 -15 -9z"/>
<path d="M2400 3971 c0 -7 16 -31 35 -52 19 -22 35 -44 35 -51 0 -6 2 -9 5 -6
9 8 -26 89 -35 83 -5 -3 -16 5 -24 17 -9 13 -16 17 -16 9z"/>
<path d="M1921 3960 c0 -23 24 -108 33 -117 5 -4 5 10 1 32 -8 44 -33 108 -34
85z"/>
<path d="M2794 3949 c-19 -22 -19 -22 3 -10 24 12 39 31 25 31 -5 0 -17 -10
-28 -21z"/>
<path d="M2260 3913 c0 -4 5 -15 10 -23 8 -13 10 -13 10 2 0 9 -4 20 -10 23
-5 3 -10 3 -10 -2z"/>
<path d="M2805 3910 c-3 -5 -2 -10 4 -10 5 0 13 5 16 10 3 6 2 10 -4 10 -5 0
-13 -4 -16 -10z"/>
<path d="M2733 3876 c-13 -6 -23 -17 -23 -24 0 -8 10 -5 30 10 42 31 39 37 -7
14z"/>
<path d="M2830 3834 c-25 -20 -46 -40 -48 -45 -7 -19 31 -99 47 -99 9 0 36 18
61 39 l44 39 -18 41 c-29 62 -36 64 -86 25z m37 -71 c5 -38 -19 -62 -42 -43
-8 7 -15 23 -15 36 0 15 6 24 15 24 8 0 15 5 15 11 0 25 24 0 27 -28z"/>
<path d="M2410 3851 c0 -5 17 -21 38 -36 l37 -28 -34 36 c-37 39 -41 42 -41
28z"/>
<path d="M2155 3817 c-42 -116 -43 -129 -12 -145 44 -23 48 -20 68 57 11 40
18 75 16 78 -2 2 -19 8 -36 13 -23 6 -33 5 -36 -3z m30 -57 c10 -16 -5 -50
-21 -50 -8 0 -14 10 -14 23 0 34 21 50 35 27z"/>
<path d="M3009 3808 c-12 -23 -12 -23 10 -4 23 21 26 26 11 26 -5 0 -15 -10
-21 -22z"/>
<path d="M2490 3807 c0 -10 7 -29 16 -43 9 -13 14 -27 10 -31 -3 -3 3 -13 15
-21 11 -8 18 -20 15 -27 -2 -7 1 -16 8 -18 7 -3 23 -25 35 -49 13 -25 20 -32
17 -18 -3 14 -6 35 -6 46 0 13 -8 24 -19 27 -11 2 -33 35 -55 78 -20 41 -36
66 -36 56z"/>
<path d="M2970 3799 c0 -5 5 -7 10 -4 6 3 10 8 10 11 0 2 -4 4 -10 4 -5 0 -10
-5 -10 -11z"/>
<path d="M1800 3751 l-12 -51 33 -27 c19 -16 44 -38 56 -51 20 -22 22 -22 31
-5 18 33 42 98 29 79 -7 -10 -20 -28 -29 -40 -17 -21 -18 -20 -12 14 6 34 6
34 -10 15 -17 -19 -17 -18 -13 30 l5 50 -24 -45 c-25 -45 -25 -45 -18 -10 12
62 10 84 -7 88 -13 2 -20 -10 -29 -47z m26 -8 c-18 -33 -21 -26 -6 13 6 15 13
24 16 21 3 -3 -1 -18 -10 -34z"/>
<path d="M2370 3760 c0 -11 5 -20 10 -20 6 0 10 9 10 20 0 11 -4 20 -10 20 -5
0 -10 -9 -10 -20z"/>
<path d="M2667 3774 c-4 -4 -7 -17 -7 -28 1 -19 1 -20 11 -3 11 19 8 43 -4 31z"/>
<path d="M1615 3740 c21 -11 40 -18 43 -16 5 6 -54 36 -70 36 -7 0 5 -9 27
-20z"/>
<path d="M1741 3740 c0 -8 4 -22 9 -30 12 -18 12 -2 0 25 -6 13 -9 15 -9 5z"/>
<path d="M2370 3698 c0 -36 4 -35 14 5 4 16 2 27 -4 27 -5 0 -10 -14 -10 -32z"/>
<path d="M2581 3714 c0 -11 3 -14 6 -6 3 7 2 16 -1 19 -3 4 -6 -2 -5 -13z"/>
<path d="M1686 3712 c-3 -5 3 -17 14 -27 23 -21 26 -9 6 18 -8 10 -17 14 -20
9z"/>
<path d="M2650 3683 c0 -17 -5 -33 -11 -35 -9 -3 -9 -12 -1 -33 l10 -30 1 27
c1 15 5 37 10 51 6 14 6 29 0 38 -6 10 -9 5 -9 -18z"/>
<path d="M2703 3675 c0 -22 2 -30 4 -17 2 12 2 30 0 40 -3 9 -5 -1 -4 -23z"/>
<path d="M2030 3684 c0 -8 5 -12 10 -9 6 4 8 11 5 16 -9 14 -15 11 -15 -7z"/>
<path d="M1726 3646 c6 -16 5 -17 -16 -6 -12 7 -20 8 -16 2 3 -5 19 -15 36
-22 17 -7 29 -18 26 -25 -2 -6 11 -17 29 -24 29 -10 95 -76 95 -94 0 -4 -16
-9 -35 -13 -24 -4 -43 -1 -60 10 -51 33 -81 49 -62 33 23 -19 22 -23 -11 -35
-34 -12 -66 0 -88 32 -9 14 -20 24 -24 21 -5 -3 -13 2 -18 10 -4 9 -24 18 -43
21 l-34 4 34 -15 c19 -8 31 -18 27 -22 -3 -4 7 -12 24 -19 37 -16 38 -32 3
-40 -16 -3 -32 -7 -38 -9 -17 -6 138 4 179 11 31 6 42 4 52 -10 12 -17 18 -16
108 9 53 15 93 32 90 36 -7 12 -54 11 -54 -1 0 -5 -7 -10 -16 -10 -14 0 -15 2
-3 17 13 15 12 15 -7 5 -18 -10 -26 -5 -62 31 -23 24 -42 49 -42 57 0 13 -2
13 -10 0 -9 -13 -11 -13 -20 1 -5 9 -18 27 -30 40 -15 18 -18 19 -14 5z"/>
<path d="M2740 3644 c0 -8 5 -12 10 -9 6 3 10 10 10 16 0 5 -4 9 -10 9 -5 0
-10 -7 -10 -16z"/>
<path d="M2200 3630 c20 -13 33 -13 25 0 -3 6 -14 10 -23 10 -15 0 -15 -2 -2
-10z"/>
<path d="M2431 3582 c-17 -34 -31 -67 -31 -74 0 -7 14 15 31 49 31 60 33 61
55 47 28 -19 38 -44 24 -58 -8 -8 -13 -7 -19 2 -8 14 -41 6 -41 -10 0 -6 7 -8
15 -4 11 4 15 -1 15 -17 0 -18 2 -19 10 -7 8 13 11 12 24 -5 21 -27 20 -43 -4
-57 -11 -7 -20 -15 -20 -18 0 -3 9 -6 20 -6 13 0 20 7 20 18 0 10 5 18 11 18
6 0 9 7 5 15 -3 8 -1 15 4 15 6 0 10 5 10 11 0 6 -7 9 -15 5 -22 -8 -37 25
-19 45 12 13 9 20 -25 53 l-39 39 -31 -61z"/>
<path d="M2703 3595 c0 -22 2 -30 4 -17 2 12 2 30 0 40 -3 9 -5 -1 -4 -23z"/>
<path d="M3009 3583 l-34 -36 35 25 c40 29 91 39 134 27 16 -5 34 -5 40 -1 14
8 -34 19 -95 21 -40 1 -49 -3 -80 -36z"/>
<path d="M2730 3590 c0 -11 4 -20 9 -20 5 0 7 9 4 20 -3 11 -7 20 -9 20 -2 0
-4 -9 -4 -20z"/>
<path d="M1705 3590 c-3 -5 -1 -10 4 -10 6 0 11 5 11 10 0 6 -2 10 -4 10 -3 0
-8 -4 -11 -10z"/>
<path d="M1660 3570 c0 -5 7 -7 15 -4 8 4 15 8 15 10 0 2 -7 4 -15 4 -8 0 -15
-4 -15 -10z"/>
<path d="M1515 3520 c3 -5 13 -10 21 -10 8 0 12 5 9 10 -3 6 -13 10 -21 10 -8
0 -12 -4 -9 -10z"/>
<path d="M2184 3512 c5 -13 3 -22 -3 -22 -6 0 -11 5 -11 10 0 6 -5 10 -10 10
-27 0 24 -47 62 -57 65 -18 108 -23 108 -15 0 11 -73 58 -102 67 -13 4 -29 12
-37 19 -11 9 -13 7 -7 -12z"/>
<path d="M2455 3510 c-3 -5 -1 -10 4 -10 6 0 11 5 11 10 0 6 -2 10 -4 10 -3 0
-8 -4 -11 -10z"/>
<path d="M2937 3499 c-4 -16 -3 -18 9 -8 16 13 19 29 5 29 -5 0 -11 -9 -14
-21z"/>
<path d="M3078 3508 c5 -7 13 -34 17 -60 4 -27 12 -48 17 -48 7 0 8 19 4 52
-8 61 -12 68 -33 68 -11 0 -13 -3 -5 -12z"/>
<path d="M2487 3469 c-3 -13 -1 -19 6 -16 15 5 22 37 9 37 -5 0 -12 -9 -15
-21z"/>
<path d="M3007 3467 c-3 -8 1 -14 9 -14 8 0 14 6 14 14 0 7 -4 13 -9 13 -5 0
-11 -6 -14 -13z"/>
<path d="M3056 3428 c-10 -39 -7 -44 9 -14 17 33 18 36 6 36 -5 0 -11 -10 -15
-22z"/>
<path d="M2986 3414 c-4 -14 -5 -28 -3 -31 3 -2 8 8 11 23 4 14 5 28 3 31 -3
2 -8 -8 -11 -23z"/>
<path d="M2035 3416 c17 -14 18 -18 5 -26 -12 -8 -10 -10 8 -10 29 0 25 18 -9
38 -23 14 -23 13 -4 -2z"/>
<path d="M3010 3419 c0 -5 4 -8 9 -5 5 4 12 0 14 -6 3 -8 6 -6 6 5 1 9 -6 17
-14 17 -8 0 -15 -5 -15 -11z"/>
<path d="M1755 3402 c-27 -6 -35 -20 -29 -57 3 -22 2 -25 -4 -11 -6 14 -11 16
-16 8 -7 -12 35 -74 69 -102 12 -10 15 -10 15 4 0 9 -6 16 -12 17 -7 0 -3 4 9
9 19 8 22 16 21 55 -1 52 -23 84 -53 77z m25 -62 c0 -5 -7 -10 -16 -10 -8 0
-12 5 -9 10 3 6 10 10 16 10 5 0 9 -4 9 -10z"/>
<path d="M2772 3398 c-12 -16 -27 -68 -18 -68 7 0 38 72 33 77 -2 2 -9 -2 -15
-9z"/>
<path d="M1933 3378 c1 -6 -8 -17 -21 -23 -13 -7 -31 -23 -40 -36 -12 -17 -4
-13 29 14 29 23 56 37 74 37 35 0 30 5 -12 13 -22 4 -32 3 -30 -5z"/>
<path d="M2909 3337 c17 -32 40 -70 51 -84 11 -14 20 -32 20 -39 0 -7 6 -11
14 -8 8 3 17 1 21 -5 10 -16 23 -13 21 5 -2 22 138 77 179 70 24 -5 26 -4 13
5 -27 15 -22 24 24 42 23 9 39 20 35 23 -11 12 -56 -6 -89 -35 -35 -30 -124
-68 -135 -58 -3 4 -12 -2 -20 -13 -8 -11 -20 -20 -28 -20 -15 0 -22 9 -82 100
-51 78 -59 84 -24 17z"/>
<path d="M3226 3374 c-4 -9 -4 -19 -1 -22 2 -3 7 3 11 12 4 9 4 19 1 22 -2 3
-7 -3 -11 -12z"/>
<path d="M1821 3334 c0 -11 3 -14 6 -6 3 7 2 16 -1 19 -3 4 -6 -2 -5 -13z"/>
<path d="M2432 3320 c7 -11 17 -20 22 -20 5 0 1 9 -9 20 -10 11 -20 20 -22 20
-2 0 2 -9 9 -20z"/>
<path d="M1481 3309 c-47 -21 -46 -38 3 -43 42 -4 42 -14 0 -50 -21 -19 -36
-37 -32 -41 4 -4 29 0 57 10 l50 16 -2 64 c-2 74 -5 75 -76 44z"/>
<path d="M3007 3323 c-7 -12 15 -47 32 -51 8 -2 32 0 54 3 l39 7 -39 18 c-58
26 -81 32 -86 23z"/>
<path d="M1924 3295 c3 -8 2 -15 -3 -15 -11 0 -8 -43 4 -53 6 -6 6 -10 -2 -14
-32 -12 -7 -40 31 -34 4 1 22 2 40 3 l32 1 -7 51 c-3 28 -4 57 -2 64 3 6 1 12
-5 12 -6 0 -12 -6 -15 -12 -4 -10 -7 -10 -18 0 -19 18 -63 16 -55 -3z m40 -4
c4 -5 2 -20 -3 -33 -11 -26 -13 -24 -15 15 -2 27 7 36 18 18z m36 -31 c0 -5
-2 -10 -4 -10 -3 0 -8 5 -11 10 -3 6 -1 10 4 10 6 0 11 -4 11 -10z m-30 -39
c0 -6 -4 -13 -10 -16 -5 -3 -10 1 -10 9 0 9 5 16 10 16 6 0 10 -4 10 -9z"/>
<path d="M1583 3284 c20 -24 22 -38 5 -29 -7 3 -5 0 6 -7 53 -36 81 -66 98
-105 10 -24 21 -43 23 -43 3 0 5 20 5 45 0 35 -3 43 -15 39 -9 -4 -19 3 -26
20 -7 14 -17 26 -23 26 -5 0 -28 17 -50 38 -22 20 -33 28 -23 16z"/>
<path d="M2140 3253 c0 -17 5 -35 10 -38 13 -8 13 35 0 55 -7 11 -10 7 -10
-17z"/>
<path d="M2245 3260 c-9 -15 4 -138 16 -145 21 -14 25 9 14 75 -13 75 -19 88
-30 70z"/>
<path d="M2480 3261 c0 -5 7 -12 16 -15 14 -5 15 -4 4 9 -14 17 -20 19 -20 6z"/>
<path d="M2930 3223 c0 -24 4 -43 9 -43 5 0 12 -8 14 -17 3 -10 3 2 0 27 -8
65 -22 85 -23 33z"/>
<path d="M1840 3161 c0 -4 27 -16 61 -27 33 -10 61 -24 61 -29 0 -6 -23 -17
-51 -25 -27 -9 -54 -19 -58 -24 -10 -10 41 3 84 21 52 21 72 17 94 -22 12 -19
22 -35 24 -35 7 0 -28 87 -41 100 -13 13 -14 13 -8 -2 8 -22 0 -23 -29 -3 -31
20 -137 56 -137 46z"/>
<path d="M3121 3126 c-24 -38 -26 -52 -9 -62 8 -5 9 -2 5 10 -8 21 9 56 26 56
8 0 26 -13 41 -29 l27 -28 -27 -56 c-14 -31 -30 -54 -35 -51 -5 3 -6 -3 -2
-12 5 -15 2 -16 -25 -11 -18 4 -32 2 -32 -3 0 -21 -154 -77 -166 -59 -8 13 49
92 92 126 21 16 33 32 28 36 -14 8 -76 -53 -114 -115 -19 -29 -35 -55 -37 -57
-1 -2 -26 -8 -55 -12 -43 -7 -57 -5 -84 11 -45 28 -66 25 -24 -4 49 -33 120
-120 131 -161 11 -38 40 -52 85 -41 17 5 24 3 19 -4 -7 -12 22 -39 41 -40 6 0
14 15 17 33 4 17 9 42 13 54 5 18 -2 26 -46 48 -29 14 -53 25 -54 23 -1 -2 -7
-15 -14 -30 -6 -16 -15 -28 -20 -28 -12 0 -105 110 -98 117 3 3 42 11 86 17
l81 12 54 -39 c30 -21 55 -43 55 -48 0 -5 5 -9 12 -9 6 0 19 -7 29 -16 10 -9
23 -14 30 -12 7 2 -4 14 -24 27 -20 12 -37 26 -37 30 0 8 77 41 95 41 6 0 16
9 23 20 12 20 12 20 -10 6 -13 -8 -47 -24 -76 -35 l-53 -21 -35 26 c-19 15
-31 30 -27 34 4 3 35 17 68 30 33 12 66 28 74 34 7 6 29 44 48 85 l34 75 -28
23 c-54 45 -60 46 -82 9z m-165 -418 c4 -7 3 -8 -4 -4 -7 4 -12 1 -12 -8 0 -8
-5 -18 -10 -21 -16 -10 -50 5 -50 22 0 8 6 13 13 10 6 -2 11 -11 10 -18 -2 -8
4 -4 13 9 18 25 29 28 40 10z"/>
<path d="M1790 3125 c0 -2 9 -9 20 -15 16 -9 18 -8 14 5 -5 13 -34 22 -34 10z"/>
<path d="M2832 3095 c-1 -19 -7 -45 -13 -58 -7 -12 -12 -24 -11 -27 1 -3 -4
-13 -12 -22 -18 -20 -9 -29 46 -49 24 -8 41 -9 47 -4 7 9 41 132 41 153 0 10
-64 42 -84 42 -8 0 -13 -14 -14 -35z m52 -60 c-7 -16 -24 -21 -24 -6 0 8 7 13
27 20 1 1 0 -6 -3 -14z m-34 -29 c0 -3 -4 -8 -10 -11 -5 -3 -10 -1 -10 4 0 6
5 11 10 11 6 0 10 -2 10 -4z"/>
<path d="M1600 3111 c0 -5 -21 -13 -47 -19 -45 -9 -42 -9 37 -8 74 1 89 -2
118 -23 43 -30 31 -43 -48 -49 -33 -2 -60 -8 -60 -13 0 -5 14 -6 31 -2 29 6
31 4 25 -18 l-7 -24 18 22 c10 12 49 31 91 43 40 12 71 24 69 26 -2 2 -17 0
-34 -5 -27 -8 -35 -5 -54 15 -12 13 -27 24 -32 24 -5 0 -22 9 -38 21 -16 11
-29 15 -29 9 0 -8 -6 -8 -20 0 -11 6 -20 7 -20 1z"/>
<path d="M3050 3069 c0 -5 5 -7 10 -4 6 3 10 8 10 11 0 2 -4 4 -10 4 -5 0 -10
-5 -10 -11z"/>
<path d="M2310 3014 c-10 -34 -10 -48 -1 -57 6 -6 11 -7 11 -2 0 5 7 -1 16
-13 8 -12 19 -22 23 -22 8 0 41 91 41 112 0 5 -5 6 -10 3 -6 -4 -16 -3 -23 3
-34 26 -45 21 -57 -24z m34 -19 c3 -8 1 -15 -4 -15 -6 0 -10 7 -10 15 0 8 2
15 4 15 2 0 6 -7 10 -15z"/>
<path d="M2750 3035 c0 -5 5 -17 10 -25 5 -8 10 -10 10 -5 0 6 -5 17 -10 25
-5 8 -10 11 -10 5z"/>
<path d="M1850 2954 c-30 -19 -64 -34 -77 -34 -13 0 -23 -5 -23 -10 0 -23 105
18 139 54 30 32 29 32 -39 -10z"/>
<path d="M1615 2930 c-3 -5 -1 -10 4 -10 6 0 11 5 11 10 0 6 -2 10 -4 10 -3 0
-8 -4 -11 -10z"/>
<path d="M2401 2924 c0 -11 3 -14 6 -6 3 7 2 16 -1 19 -3 4 -6 -2 -5 -13z"/>
<path d="M1508 2875 c-21 -29 -38 -58 -38 -64 0 -21 34 -81 47 -81 7 0 28 25
48 56 29 45 34 59 24 70 -9 11 -9 18 -1 26 16 16 15 29 -2 22 -7 -3 -16 2 -19
10 -10 25 -20 19 -59 -39z"/>
<path d="M2103 2909 c15 -9 16 -13 5 -27 -8 -11 -5 -10 10 3 22 18 22 20 5 26
-28 11 -40 10 -20 -2z"/>
<path d="M2361 2907 c-1 -4 10 -30 24 -57 18 -35 25 -67 26 -107 1 -57 1 -58
14 -28 8 17 14 37 14 45 1 13 0 13 -10 0 -8 -11 -9 -3 -6 32 4 38 1 48 -12 53
-10 3 -25 20 -34 38 -8 17 -16 28 -16 24z"/>
<path d="M2452 2890 c0 -14 2 -19 5 -12 2 6 2 18 0 25 -3 6 -5 1 -5 -13z"/>
<path d="M1935 2887 c-2 -7 -10 -34 -19 -61 -9 -27 -16 -55 -16 -63 0 -11 69
-48 75 -41 5 6 46 161 43 163 -2 1 -20 5 -41 8 -25 4 -39 2 -42 -6z m38 -59
c7 -24 -5 -47 -24 -45 -21 1 -25 27 -7 45 15 15 25 15 31 0z"/>
<path d="M2076 2841 c-10 -10 -13 -22 -8 -25 5 -3 14 6 20 19 14 30 11 31 -12
6z"/>
<path d="M1786 2821 c-3 -4 -19 -11 -36 -14 -55 -11 -34 -29 29 -24 52 3 91
21 91 41 0 10 -78 7 -84 -3z"/>
<path d="M2677 2814 c-3 -3 -3 -13 0 -22 5 -12 2 -14 -11 -9 -9 4 -28 0 -41
-9 -24 -15 -24 -17 -7 -39 9 -12 23 -20 29 -18 7 3 13 0 13 -7 0 -6 3 -9 8 -6
9 5 48 -22 40 -29 -3 -3 -21 2 -41 10 -22 9 -37 11 -37 5 0 -5 5 -10 10 -10 6
0 10 -6 10 -14 0 -19 43 -12 80 14 29 21 39 40 21 40 -5 0 -11 -5 -13 -12 -7
-19 -28 1 -28 27 0 13 -5 27 -11 31 -6 3 -9 17 -6 30 4 23 -3 31 -16 18z m-26
-56 c0 -10 2 -10 6 -1 3 9 11 7 26 -7 11 -11 18 -22 15 -25 -7 -7 -68 27 -68
38 0 12 20 8 21 -5z"/>
<path d="M3210 2761 c0 -16 -3 -42 -6 -58 -6 -29 -4 -31 39 -42 25 -6 48 -11
51 -11 3 0 6 27 6 60 l0 59 -37 10 c-52 15 -53 15 -53 -18z"/>
<path d="M1786 2736 c7 -18 -34 -28 -88 -20 -28 3 -38 2 -30 -4 10 -7 6 -16
-17 -40 -37 -41 -22 -42 19 -2 17 17 40 30 52 30 11 0 38 5 59 12 36 10 42 9
81 -18 l43 -29 -40 -6 c-33 -5 -28 -6 29 -8 l70 -1 -46 29 c-25 16 -54 32 -66
35 -11 4 -26 13 -32 21 -16 19 -41 20 -34 1z"/>
<path d="M2070 2703 c1 -11 50 -46 50 -35 0 10 -33 42 -43 42 -4 0 -7 -3 -7
-7z"/>
<path d="M1999 2671 c7 -12 18 -21 25 -21 8 0 19 -7 26 -15 14 -17 50 -20 50
-5 0 6 -8 10 -18 10 -9 0 -35 12 -56 26 -34 24 -37 24 -27 5z"/>
<path d="M2553 2642 c-23 -20 -45 -48 -48 -62 -6 -22 -4 -21 14 7 11 18 38 44
61 59 43 28 47 34 28 34 -7 0 -32 -17 -55 -38z"/>
<path d="M3149 2633 c12 -24 26 -43 31 -43 20 0 9 27 -21 56 l-31 29 21 -42z"/>
<path d="M2635 2630 c-3 -5 -2 -10 4 -10 5 0 13 5 16 10 3 6 2 10 -4 10 -5 0
-13 -4 -16 -10z"/>
<path d="M2028 2615 c-3 -3 -29 -14 -59 -25 -30 -11 -46 -19 -35 -20 15 0 16
-3 6 -15 -20 -24 0 -17 35 13 17 15 40 32 51 39 10 6 16 12 13 12 -3 1 -8 -1
-11 -4z"/>
<path d="M2798 2573 c7 -3 16 -2 19 1 4 3 -2 6 -13 5 -11 0 -14 -3 -6 -6z"/>
<path d="M2700 2520 c8 -5 20 -10 25 -10 6 0 3 5 -5 10 -8 5 -19 10 -25 10 -5
0 -3 -5 5 -10z"/>
<path d="M1485 4020 c-18 -30 39 -86 75 -75 27 9 26 50 -2 69 -25 18 -64 21
-73 6z"/>
<path d="M3252 4004 c-23 -16 -30 -58 -11 -69 31 -20 95 37 82 73 -6 17 -44
15 -71 -4z"/>
<path d="M3390 3867 c-18 -9 -25 -21 -25 -42 0 -25 4 -30 28 -33 37 -4 69 24
65 57 -4 30 -31 38 -68 18z"/>
<path d="M1180 3390 c0 -32 23 -42 34 -15 8 21 -3 45 -20 45 -9 0 -14 -11 -14
-30z"/>
<path d="M3637 3204 c-13 -13 -7 -52 9 -58 24 -9 25 -8 22 26 -3 31 -17 45
-31 32z"/>
<path d="M3711 3198 c0 -7 4 -22 9 -33 7 -18 8 -19 15 -2 4 9 5 24 1 32 -7 18
-26 20 -25 3z"/>
<path d="M1159 2561 c-20 -16 -22 -23 -13 -38 15 -24 39 -28 75 -12 24 9 29
17 27 38 -2 21 -9 27 -34 29 -19 2 -39 -4 -55 -17z"/>
<path d="M1335 2320 c18 -20 55 -28 55 -12 0 16 -24 32 -49 32 -23 0 -24 -1
-6 -20z"/>
<path d="M1425 2180 c-7 -12 7 -39 32 -62 17 -16 20 -16 43 2 l25 19 -24 25
c-25 26 -65 35 -76 16z"/>
<path d="M1347 2108 c-5 -17 30 -68 47 -68 8 0 19 7 26 15 11 13 9 20 -10 40
-25 27 -56 33 -63 13z"/>
<path d="M3285 2160 c-21 -34 47 -90 85 -70 26 14 25 26 -5 55 -24 25 -69 33
-80 15z"/>
<path d="M855 4530 c-3 -5 1 -10 10 -10 9 0 13 5 10 10 -3 6 -8 10 -10 10 -2
0 -7 -4 -10 -10z"/>
<path d="M3930 4531 c0 -5 7 -11 14 -14 10 -4 13 -1 9 9 -6 15 -23 19 -23 5z"/>
<path d="M3653 4512 c-8 -5 -9 -13 -3 -22 7 -12 10 -12 16 3 8 21 3 29 -13 19z"/>
<path d="M1140 4480 c0 -17 -6 -33 -14 -36 -17 -7 -9 -44 10 -44 8 0 13 6 12
13 -2 7 9 13 27 15 20 2 34 11 42 27 l11 25 -25 -20 c-40 -31 -57 -26 -50 15
3 19 2 35 -4 35 -5 0 -9 -14 -9 -30z"/>
<path d="M3550 4496 c0 -2 8 -10 18 -17 15 -13 16 -12 3 4 -13 16 -21 21 -21
13z"/>
<path d="M945 4480 c-3 -5 -1 -10 4 -10 6 0 11 5 11 10 0 6 -2 10 -4 10 -3 0
-8 -4 -11 -10z"/>
<path d="M1010 4472 c0 -11 -13 -52 -30 -90 -33 -77 -39 -146 -15 -155 8 -4
36 0 62 8 55 17 179 92 168 103 -4 4 -32 7 -63 7 -62 0 -54 -9 -84 94 -14 46
-38 68 -38 33z"/>
<path d="M3760 4464 c-6 -14 -10 -35 -10 -48 0 -12 -6 -34 -12 -50 -12 -25
-16 -27 -54 -21 -22 3 -51 2 -64 -3 -23 -8 -21 -11 36 -47 72 -47 111 -63 161
-69 l39 -5 -7 62 c-4 34 -18 87 -33 117 -14 30 -26 63 -26 73 0 26 -19 21 -30
-9z"/>
<path d="M3840 4474 c0 -8 5 -12 10 -9 6 3 10 10 10 16 0 5 -4 9 -10 9 -5 0
-10 -7 -10 -16z"/>
<path d="M3960 4446 c0 -42 -16 -80 -31 -71 -5 4 -9 26 -9 51 0 38 -3 44 -22
44 -20 0 -20 -1 -4 -19 11 -13 17 -32 15 -54 -2 -21 3 -40 12 -49 13 -14 18
-13 44 9 17 13 22 21 11 17 -16 -6 -17 -3 -11 27 4 19 11 39 16 45 6 7 4 16
-6 24 -13 11 -15 7 -15 -24z"/>
<path d="M823 4462 c-8 -5 -8 -12 3 -26 13 -19 14 -19 14 7 0 30 0 30 -17 19z"/>
<path d="M890 4451 c0 -25 6 -27 13 -6 4 8 2 17 -3 20 -6 4 -10 -3 -10 -14z"/>
<path d="M3590 4446 c0 -11 9 -16 30 -16 18 0 33 -6 36 -15 9 -22 34 -18 34 5
0 11 -3 21 -7 21 -5 1 -19 3 -33 4 -14 1 -33 6 -42 10 -13 5 -18 3 -18 -9z"/>
<path d="M844 4392 c4 -19 1 -22 -12 -17 -13 5 -13 2 3 -15 10 -11 24 -20 30
-20 21 0 33 23 24 45 -6 17 -8 17 -8 3 -1 -25 -20 -22 -32 5 l-10 22 5 -23z"/>
<path d="M1250 4400 c0 -5 5 -10 11 -10 5 0 7 5 4 10 -3 6 -8 10 -11 10 -2 0
-4 -4 -4 -10z"/>
<path d="M741 4281 c-12 -16 -28 -46 -36 -65 -9 -20 -20 -36 -26 -36 -5 0 -7
-5 -4 -10 10 -16 -15 -79 -35 -90 -26 -14 -60 -12 -60 3 0 6 9 27 20 45 22 36
24 42 12 42 -4 0 -14 -16 -21 -36 -11 -29 -17 -35 -34 -30 -12 3 -27 1 -33 -5
-9 -7 -19 -7 -34 1 -11 6 -26 7 -33 3 -8 -5 -1 -9 18 -13 40 -7 46 -41 10 -60
-18 -10 -22 -16 -13 -21 7 -5 20 0 30 11 38 40 69 -5 44 -65 l-15 -36 30 31
c25 25 34 28 50 19 17 -8 20 -19 17 -62 -4 -66 -20 -66 -34 -2 -10 45 -12 47
-15 20 -2 -16 -1 -50 4 -75 12 -65 -1 -174 -31 -262 -38 -114 -35 -117 -82
107 -17 83 -35 166 -39 185 l-8 35 -13 -45 c-21 -76 -15 -192 20 -335 17 -72
33 -156 37 -187 6 -55 5 -57 -18 -56 -13 1 -39 15 -58 31 -38 33 -78 53 -87
44 -3 -3 8 -23 24 -44 17 -21 40 -61 51 -89 24 -62 41 -153 31 -159 -5 -3 -24
16 -44 42 -19 27 -54 71 -77 98 -22 28 -52 74 -66 104 -22 45 -27 51 -36 36
-28 -51 24 -183 123 -305 85 -106 110 -159 110 -236 0 -84 -9 -126 -26 -120
-12 4 -11 0 1 -24 15 -30 21 -130 8 -130 -5 1 -19 7 -33 15 -14 8 -45 14 -71
15 -34 0 -55 7 -85 30 -22 16 -54 34 -70 40 -26 10 -25 7 19 -38 46 -47 48
-51 39 -84 -6 -23 -6 -53 0 -86 11 -54 28 -61 28 -12 0 37 9 60 24 60 6 -1 45
-55 86 -121 41 -66 97 -143 124 -170 27 -27 46 -53 42 -57 -4 -4 -15 2 -24 13
-10 11 -26 27 -37 35 -11 8 -4 -4 15 -26 28 -34 37 -40 51 -31 37 23 129 -66
144 -141 9 -45 -9 -42 -62 13 -30 32 -43 40 -43 28 1 -38 39 -100 93 -150 50
-46 79 -95 64 -109 -3 -3 -40 11 -83 32 -170 82 -304 29 -251 -99 19 -44 49
-64 124 -84 32 -8 64 -20 71 -25 7 -6 15 -8 18 -6 11 11 -44 59 -116 101 -41
24 -76 51 -78 61 -5 26 17 46 50 46 38 0 89 -27 367 -193 130 -78 301 -175
381 -217 80 -42 144 -81 143 -87 -1 -6 16 -15 37 -22 22 -6 40 -16 40 -20 0
-25 -206 -21 -275 5 l-20 7 20 -22 c43 -49 92 -65 215 -69 63 -2 119 -8 125
-13 5 -5 22 -9 37 -9 15 0 28 -4 28 -8 0 -13 -218 -104 -262 -110 -46 -6 -48
-16 -7 -31 41 -14 102 -14 151 1 31 9 41 9 47 0 5 -9 15 -10 32 -3 13 5 18 10
12 10 -27 2 -11 22 36 46 28 14 57 22 65 19 9 -3 16 -1 16 5 0 19 19 12 36
-14 29 -45 15 -132 -20 -119 -17 7 -14 -35 4 -46 8 -5 10 -15 6 -26 -6 -15 -5
-17 5 -7 19 19 47 16 54 -7 6 -20 16 -25 28 -13 4 3 -2 12 -13 20 -26 18 -26
43 0 50 11 3 20 12 20 19 0 10 -7 13 -25 8 -47 -12 -46 50 0 101 27 28 39 26
48 -10 3 -13 5 -9 6 13 1 38 -14 41 -54 10 l-27 -21 -19 24 c-30 38 -30 38 58
53 56 9 253 -33 253 -54 0 -16 -56 -12 -70 5 -7 8 -25 15 -41 15 -27 0 -29 -2
-23 -28 4 -15 11 -33 16 -39 6 -7 8 -20 4 -28 -7 -19 14 -19 40 0 18 14 18 14
-3 8 -27 -6 -30 9 -7 28 12 10 17 10 23 0 6 -10 10 -9 14 3 10 26 98 21 157
-9 28 -14 50 -30 50 -35 0 -6 -19 -10 -42 -10 -24 -1 -83 -9 -133 -18 l-90
-18 35 -19 c32 -18 53 -20 218 -18 100 1 182 -1 182 -6 0 -4 -40 -42 -90 -85
-49 -43 -90 -84 -90 -91 0 -8 12 -15 28 -17 22 -3 40 9 103 72 96 95 119 108
157 89 15 -8 61 -48 101 -89 60 -60 80 -74 100 -71 15 1 30 6 34 11 5 4 -33
45 -85 91 -51 46 -91 86 -88 89 3 3 84 5 180 5 155 0 179 2 213 20 l39 20 -94
17 c-51 9 -112 17 -135 17 -24 1 -43 5 -43 11 0 5 22 21 50 35 52 26 143 35
155 15 4 -6 15 -8 25 -5 11 4 22 0 28 -10 11 -20 27 -4 37 38 7 25 5 27 -23
27 -16 0 -35 -7 -42 -15 -14 -16 -70 -21 -70 -5 0 5 24 16 52 25 131 39 275
40 272 2 -2 -15 1 -16 13 -5 12 10 18 9 28 -5 9 -12 14 -14 17 -6 3 9 21 4 61
-15 54 -27 72 -45 45 -47 -7 0 -4 -4 7 -8 11 -5 25 -4 32 1 8 7 23 6 44 -1 59
-21 179 -8 179 19 0 4 -19 10 -42 14 -46 8 -245 92 -255 109 -4 6 15 8 52 5
47 -4 55 -3 41 7 -13 10 0 13 72 13 108 0 185 20 232 62 32 29 33 31 10 25
-77 -18 -152 -25 -207 -19 -63 6 -80 17 -44 29 10 3 30 16 44 29 14 13 81 52
149 86 68 35 177 95 243 135 441 263 463 275 508 275 29 0 50 -22 45 -47 -2
-10 -32 -34 -67 -55 -60 -34 -135 -97 -127 -105 2 -2 19 3 37 11 19 8 53 19
77 26 62 16 102 56 109 107 15 116 -115 146 -274 62 -97 -51 -96 -10 2 91 61
62 85 101 85 138 0 11 -14 2 -44 -27 -51 -51 -69 -48 -54 7 10 39 79 118 112
128 35 11 130 119 189 215 75 122 92 143 106 135 6 -4 11 -25 11 -46 0 -59 17
-57 31 4 9 40 9 62 1 86 -11 30 -9 34 35 81 44 47 45 49 17 39 -16 -6 -44 -23
-62 -37 -23 -17 -50 -27 -83 -29 -27 -2 -62 -10 -78 -19 -17 -8 -32 -15 -36
-15 -14 0 -3 95 16 133 12 23 15 36 8 30 -23 -22 -27 -15 -34 64 -11 108 7
155 100 273 91 115 127 185 133 256 7 87 -5 96 -37 28 -15 -32 -52 -89 -82
-125 -30 -37 -64 -79 -75 -95 -30 -41 -39 -24 -24 43 16 74 50 149 84 191 26
30 26 32 8 32 -11 0 -40 -15 -64 -33 -24 -19 -54 -36 -66 -39 -21 -6 -22 -3
-22 44 0 27 14 109 31 181 37 153 44 296 17 357 l-15 35 -12 -80 c-17 -114
-65 -316 -76 -316 -5 0 -20 28 -34 63 -21 54 -25 82 -27 193 -4 171 -4 177
-15 130 -13 -56 -26 -64 -34 -23 -10 55 -3 83 23 86 12 2 22 -1 22 -7 0 -6 7
-8 15 -5 9 4 15 19 15 39 0 39 33 55 52 25 6 -10 18 -16 26 -13 10 4 7 12 -14
28 -33 26 -27 55 11 55 15 0 25 6 25 14 0 12 -5 12 -31 -1 -21 -11 -34 -12
-41 -5 -6 6 -17 8 -24 5 -20 -8 -42 14 -49 49 -5 20 -10 27 -17 20 -7 -7 -2
-23 16 -48 28 -41 26 -54 -8 -54 -37 0 -58 23 -60 66 0 21 -7 43 -14 47 -7 4
-23 30 -37 57 -28 55 -52 78 -42 39 19 -71 67 -333 61 -338 -3 -3 -19 10 -35
29 -21 25 -29 29 -29 17 0 -10 7 -29 16 -43 22 -33 10 -42 -26 -20 -47 27 -35
4 40 -79 39 -42 70 -81 70 -86 0 -22 -32 -4 -98 56 -40 36 -75 65 -77 65 -2 0
1 -15 8 -34 19 -55 70 -120 138 -175 74 -60 129 -125 129 -152 0 -11 -2 -19
-5 -19 -13 0 -176 146 -199 179 l-26 36 0 -28 c0 -41 32 -96 89 -152 28 -27
51 -53 51 -58 0 -5 11 -18 25 -29 14 -11 25 -30 25 -43 0 -14 7 -25 20 -28 25
-6 26 -34 3 -40 -15 -4 -14 -5 3 -6 26 -1 58 -36 51 -55 -3 -8 0 -17 8 -19 19
-8 50 -148 35 -157 -9 -5 -8 -15 3 -36 19 -37 32 -139 19 -148 -9 -5 -78 63
-171 169 l-44 50 7 -43 c8 -55 39 -115 121 -238 36 -54 70 -116 76 -138 6 -21
9 -87 7 -145 l-4 -106 -58 -118 c-31 -64 -62 -115 -67 -112 -5 4 -9 -3 -9 -14
0 -26 -10 -51 -21 -51 -5 0 -17 17 -28 38 -11 21 -39 63 -64 93 -24 30 -53 72
-64 93 -19 37 -21 38 -27 18 -9 -28 7 -81 49 -157 47 -86 68 -174 62 -264 -4
-63 -8 -76 -28 -92 -13 -10 -29 -19 -35 -19 -27 0 -117 -105 -184 -214 -74
-120 -119 -164 -171 -170 -13 -1 -37 -14 -53 -29 -17 -15 -37 -26 -45 -25 -9
2 -21 -3 -27 -11 -9 -12 -16 -12 -42 -2 -39 16 -76 56 -67 71 5 8 21 10 41 7
19 -3 36 -1 39 4 4 5 -9 9 -28 9 -43 0 -54 23 -27 50 11 11 24 20 30 20 5 0 7
7 4 15 -5 11 -11 8 -28 -12 -29 -34 -56 -26 -56 17 0 21 -5 30 -16 30 -11 0
-14 -5 -9 -17 17 -41 17 -53 -1 -60 -9 -3 -29 0 -44 9 -24 13 -26 13 -26 -4 0
-13 8 -18 28 -18 23 0 28 -4 28 -25 0 -20 -8 -29 -32 -40 -19 -8 -26 -14 -15
-15 19 0 23 -15 7 -25 -13 -8 -13 -25 0 -25 6 0 17 18 26 40 9 22 20 40 24 40
24 0 40 -15 40 -36 0 -16 4 -22 14 -18 15 6 66 -22 66 -37 0 -14 -151 -89
-241 -120 -97 -32 -113 -35 -106 -16 3 9 -7 12 -34 12 -29 0 -43 -6 -55 -23
-16 -23 -62 -30 -80 -12 -7 7 -22 -5 -47 -34 -44 -53 -146 -107 -210 -111
l-44 -3 -6 50 c-4 29 -18 69 -34 95 -61 97 -73 126 -67 160 7 40 -4 42 -37 7
-36 -38 -30 -86 21 -173 39 -66 42 -76 38 -127 -5 -53 -34 -112 -54 -107 -5 1
-13 30 -17 64 -4 34 -14 73 -22 88 l-14 26 -1 -26 c0 -30 -62 -160 -85 -179
-8 -7 -21 -10 -29 -7 -26 10 -70 79 -92 144 l-22 64 -10 -31 c-6 -16 -14 -57
-18 -90 -8 -71 -19 -73 -51 -10 -34 65 -30 101 22 196 25 45 45 92 45 104 0
40 -36 90 -65 90 -2 0 -1 -15 2 -33 6 -37 -8 -72 -62 -156 -19 -30 -37 -73
-41 -96 -5 -37 -10 -44 -35 -49 -35 -7 -112 22 -174 64 -27 18 -60 57 -90 105
-37 60 -61 86 -118 125 -38 28 -74 50 -78 50 -4 0 5 -29 22 -65 32 -71 37
-105 15 -105 -8 0 -16 -5 -18 -10 -6 -18 -117 18 -237 75 -77 38 -112 59 -108
68 4 10 -2 13 -19 9 -16 -3 -26 1 -30 12 -3 9 -10 13 -15 10 -12 -7 -51 15
-67 38 -7 10 -17 16 -22 13 -5 -3 -28 4 -52 16 -47 23 -78 60 -152 184 -53 86
-136 174 -185 195 -75 31 -66 202 20 371 40 79 61 159 42 159 -5 0 -15 -11
-21 -25 -7 -14 -35 -56 -63 -92 -28 -37 -58 -82 -67 -100 -18 -39 -42 -43 -42
-8 0 13 -6 28 -14 32 -8 4 -40 62 -72 128 l-59 120 0 120 c0 136 3 145 103
290 62 89 101 175 102 219 l0 30 -23 -32 c-27 -35 -175 -192 -182 -192 -11 0
-4 103 10 136 8 20 12 48 8 64 -6 33 12 117 30 139 6 7 12 19 13 25 0 6 2 17
2 24 1 7 17 19 35 27 18 8 25 14 15 15 -22 0 -23 23 -4 39 12 10 17 9 24 -6 5
-10 7 -24 5 -30 -3 -7 2 -13 11 -13 10 0 16 -9 16 -24 0 -18 -8 -27 -30 -34
-20 -7 -28 -16 -24 -25 3 -8 1 -18 -5 -22 -6 -3 -11 -11 -11 -16 0 -6 5 -7 10
-4 6 4 10 -9 10 -32 0 -61 12 -70 47 -37 16 16 19 21 8 12 -33 -28 -45 -22
-45 20 0 76 70 139 78 69 2 -15 7 -27 12 -27 5 0 7 14 3 31 -8 40 12 54 45 33
12 -8 28 -12 34 -8 7 5 -2 12 -23 19 -23 8 -35 19 -37 33 -2 12 -10 22 -19 22
-16 0 -15 34 2 73 5 11 3 17 -7 17 -9 0 -14 -12 -15 -36 -2 -51 -19 -65 -44
-35 -26 31 -24 57 6 87 14 14 25 28 25 32 0 4 25 32 56 62 61 60 78 87 89 140
l7 35 -42 -47 c-49 -57 -189 -173 -197 -164 -9 9 16 61 46 92 15 16 60 57 99
92 69 61 112 119 127 172 7 23 5 23 -31 -11 -46 -42 -119 -99 -128 -99 -17 0
-1 27 48 78 48 51 76 90 76 107 0 3 -14 -2 -31 -10 -40 -21 -46 -13 -20 24 29
41 9 49 -23 9 l-26 -33 0 36 c0 40 45 274 60 315 15 38 6 40 -19 5z m-173
-214 c4 -20 -25 -34 -40 -19 -15 15 -1 44 19 40 10 -2 19 -11 21 -21z m3709 7
c8 -21 -13 -42 -28 -27 -13 13 -5 43 11 43 6 0 13 -7 17 -16z m-3656 -24 c20
-11 27 -64 10 -74 -13 -9 -61 33 -61 53 0 32 17 39 51 21z m3607 -16 c2 -14
-7 -29 -24 -43 -32 -25 -44 -20 -44 19 0 47 62 69 68 24z m-3540 -727 c4 -20
-25 -34 -40 -19 -15 15 -1 44 19 40 10 -2 19 -11 21 -21z m-289 -867 c40 -39
105 -152 99 -172 -5 -14 -92 100 -152 200 -15 25 13 11 53 -28z m4061 31 c0
-13 -151 -214 -157 -208 -6 7 27 82 61 135 15 24 41 52 59 62 37 23 37 23 37
11z m-3651 -740 c48 -60 39 -81 -15 -39 -36 28 -44 38 -44 61 0 29 27 19 59
-22z m3241 21 c0 -22 -16 -43 -50 -66 -52 -34 -54 -12 -4 44 40 44 54 50 54
22z m-600 -208 c11 -12 10 -18 -3 -32 -16 -15 -18 -15 -34 0 -13 14 -14 20 -3
32 7 9 16 16 20 16 4 0 13 -7 20 -16z m-1535 -489 c0 -5 -10 -11 -22 -13 -16
-2 -23 2 -23 13 0 11 7 15 23 13 12 -2 22 -7 22 -13z m1015 0 c0 -8 -9 -15
-20 -15 -11 0 -20 7 -20 15 0 8 9 15 20 15 11 0 20 -7 20 -15z m-1225 -135 c0
-8 -10 -16 -22 -18 -18 -3 -23 2 -23 18 0 16 5 21 23 18 12 -2 22 -10 22 -18z"/>
<path d="M795 4245 c-11 -25 -19 -74 -22 -130 -6 -102 -8 -101 66 -10 l41 49
-23 12 c-16 9 -25 27 -33 66 l-10 53 -19 -40z"/>
<path d="M3976 4226 c-6 -42 -11 -56 -21 -52 -7 2 -16 -2 -19 -11 -4 -9 12
-37 41 -74 39 -48 49 -55 55 -41 18 46 -2 171 -35 216 -13 18 -15 14 -21 -38z"/>
<path d="M4207 4257 c-3 -7 3 -13 14 -13 13 0 15 3 7 13 -6 7 -12 13 -13 13
-2 0 -5 -6 -8 -13z"/>
<path d="M585 4250 c3 -5 8 -10 11 -10 2 0 4 5 4 10 0 6 -5 10 -11 10 -5 0 -7
-4 -4 -10z"/>
<path d="M425 4219 c-9 -14 -2 -20 14 -10 8 6 9 11 3 15 -6 3 -14 1 -17 -5z"/>
<path d="M4365 4221 c-3 -5 -1 -12 5 -16 5 -3 10 1 10 9 0 18 -6 21 -15 7z"/>
<path d="M517 4153 c19 -29 23 -29 23 1 0 18 -5 24 -19 23 -17 -1 -18 -3 -4
-24z"/>
<path d="M988 4173 c7 -3 16 -2 19 1 4 3 -2 6 -13 5 -11 0 -14 -3 -6 -6z"/>
<path d="M3800 4169 c0 -5 5 -7 10 -4 6 3 10 8 10 11 0 2 -4 4 -10 4 -5 0 -10
-5 -10 -11z"/>
<path d="M4270 4158 c0 -10 2 -18 5 -18 2 0 9 8 14 18 8 14 6 19 -5 19 -7 0
-14 -9 -14 -19z"/>
<path d="M975 4110 c-19 -21 -55 -27 -55 -9 0 5 -5 7 -10 4 -6 -4 -4 -12 6
-22 21 -22 2 -43 -25 -26 -15 10 -22 9 -34 -5 -20 -23 1 -47 22 -25 18 19 44
-3 38 -33 -3 -16 0 -21 10 -17 8 3 12 11 10 17 -3 6 -8 19 -12 28 -10 25 21
35 44 14 13 -12 21 -14 26 -7 3 6 -5 15 -20 21 -31 12 -29 34 3 38 14 2 22 11
22 23 0 24 -3 24 -25 -1z"/>
<path d="M3800 4105 c-9 -11 -5 -14 22 -17 25 -2 32 -7 30 -20 -2 -11 3 -18
13 -18 17 0 20 -23 5 -51 -8 -15 -7 -19 5 -19 9 0 15 9 15 24 0 26 22 40 38
24 15 -15 26 10 11 28 -11 14 -13 14 -21 0 -5 -8 -15 -13 -23 -10 -20 8 -19
42 2 46 15 3 15 4 0 17 -15 12 -17 11 -17 -3 0 -20 -19 -21 -47 -1 -18 13 -22
13 -33 0z"/>
<path d="M1050 4064 c0 -8 5 -12 10 -9 6 4 8 11 5 16 -9 14 -15 11 -15 -7z"/>
<path d="M3735 4071 c-3 -5 -1 -12 5 -16 5 -3 10 1 10 9 0 18 -6 21 -15 7z"/>
<path d="M365 4039 c-4 -6 -5 -12 -2 -15 2 -3 7 2 10 11 7 17 1 20 -8 4z"/>
<path d="M3811 4041 c-8 -5 -9 -11 -3 -15 5 -3 15 1 22 9 14 16 3 20 -19 6z"/>
<path d="M4430 4030 c0 -5 5 -10 10 -10 6 0 10 5 10 10 0 6 -4 10 -10 10 -5 0
-10 -4 -10 -10z"/>
<path d="M985 3970 c-3 -5 -1 -10 4 -10 6 0 11 5 11 10 0 6 -2 10 -4 10 -3 0
-8 -4 -11 -10z"/>
<path d="M3800 3970 c0 -5 5 -10 11 -10 5 0 7 5 4 10 -3 6 -8 10 -11 10 -2 0
-4 -4 -4 -10z"/>
<path d="M860 3952 c0 -5 7 -15 15 -22 8 -7 15 -9 15 -6 0 4 -7 14 -15 22 -8
9 -15 11 -15 6z"/>
<path d="M3910 3929 c0 -5 5 -7 10 -4 6 3 10 8 10 11 0 2 -4 4 -10 4 -5 0 -10
-5 -10 -11z"/>
<path d="M480 3900 c0 -13 18 -22 24 -11 3 5 -1 11 -9 15 -8 3 -15 1 -15 -4z"/>
<path d="M4305 3900 c-3 -5 -1 -10 4 -10 6 0 11 5 11 10 0 6 -2 10 -4 10 -3 0
-8 -4 -11 -10z"/>
<path d="M330 3700 c0 -5 5 -10 11 -10 5 0 7 5 4 10 -3 6 -8 10 -11 10 -2 0
-4 -4 -4 -10z"/>
<path d="M4460 3700 c0 -5 5 -10 11 -10 5 0 7 5 4 10 -3 6 -8 10 -11 10 -2 0
-4 -4 -4 -10z"/>
<path d="M120 3619 c0 -5 5 -7 10 -4 6 3 10 8 10 11 0 2 -4 4 -10 4 -5 0 -10
-5 -10 -11z"/>
<path d="M4665 3620 c4 -6 11 -8 16 -5 14 9 11 15 -7 15 -8 0 -12 -5 -9 -10z"/>
<path d="M286 3551 c-3 -5 1 -14 9 -21 13 -10 15 -9 15 9 0 21 -14 28 -24 12z"/>
<path d="M4494 3545 c-9 -22 1 -29 15 -11 8 10 9 16 1 21 -5 3 -13 -1 -16 -10z"/>
<path d="M200 3504 c0 -8 5 -12 10 -9 6 3 10 10 10 16 0 5 -4 9 -10 9 -5 0
-10 -7 -10 -16z"/>
<path d="M4587 3514 c-8 -8 1 -24 12 -24 4 0 8 7 8 15 0 16 -9 20 -20 9z"/>
<path d="M765 3480 c-3 -5 -1 -10 4 -10 6 0 11 5 11 10 0 6 -2 10 -4 10 -3 0
-8 -4 -11 -10z"/>
<path d="M4020 3480 c0 -5 5 -10 11 -10 5 0 7 5 4 10 -3 6 -8 10 -11 10 -2 0
-4 -4 -4 -10z"/>
<path d="M155 3449 c-10 -15 3 -25 16 -12 7 7 7 13 1 17 -6 3 -14 1 -17 -5z"/>
<path d="M345 3450 c-3 -5 -1 -10 4 -10 6 0 11 5 11 10 0 6 -2 10 -4 10 -3 0
-8 -4 -11 -10z"/>
<path d="M4440 3450 c0 -6 7 -10 15 -10 8 0 15 2 15 4 0 2 -7 6 -15 10 -8 3
-15 1 -15 -4z"/>
<path d="M4630 3446 c0 -9 5 -16 10 -16 6 0 10 4 10 9 0 6 -4 13 -10 16 -5 3
-10 -1 -10 -9z"/>
<path d="M233 3433 c15 -2 39 -2 55 0 15 2 2 4 -28 4 -30 0 -43 -2 -27 -4z"/>
<path d="M4508 3433 c18 -2 45 -2 60 0 15 2 0 4 -33 4 -33 0 -45 -2 -27 -4z"/>
<path d="M4121 3408 c17 -34 19 -34 19 -5 0 18 -5 27 -15 27 -13 0 -14 -4 -4
-22z"/>
<path d="M731 3361 l-25 -19 27 5 c15 3 27 12 27 19 0 17 0 17 -29 -5z"/>
<path d="M4046 3373 c-12 -12 -6 -23 13 -23 11 0 27 -7 36 -16 19 -19 7 -39
-30 -48 -14 -4 -25 -13 -25 -22 0 -14 2 -14 22 0 47 33 78 14 54 -32 -13 -26
-13 -28 5 -28 13 0 17 6 14 21 -8 31 10 53 32 39 26 -16 43 -54 43 -96 0 -40
-11 -47 -40 -25 -9 6 -5 2 8 -11 31 -30 42 -21 42 35 0 36 3 44 15 39 13 -5
13 -2 -1 19 -8 13 -15 27 -14 31 1 3 -9 12 -22 18 -27 14 -38 56 -14 56 10 0
16 9 16 22 0 21 0 21 -21 2 -15 -13 -23 -15 -26 -7 -3 10 -9 10 -23 0 -16 -9
-24 -7 -48 10 -17 12 -32 19 -36 16z m111 -59 c8 -21 -13 -42 -28 -27 -13 13
-5 43 11 43 6 0 13 -7 17 -16z"/>
<path d="M4010 3160 c0 -5 5 -10 11 -10 5 0 7 5 4 10 -3 6 -8 10 -11 10 -2 0
-4 -4 -4 -10z"/>
<path d="M265 3030 c-3 -5 1 -10 9 -10 9 0 16 5 16 10 0 6 -4 10 -9 10 -6 0
-13 -4 -16 -10z"/>
<path d="M4510 3025 c0 -9 6 -12 15 -9 8 4 12 10 9 15 -8 14 -24 10 -24 -6z"/>
<path d="M4665 3010 c-3 -5 -1 -10 4 -10 6 0 11 5 11 10 0 6 -2 10 -4 10 -3 0
-8 -4 -11 -10z"/>
<path d="M291 2994 c0 -11 3 -14 6 -6 3 7 2 16 -1 19 -3 4 -6 -2 -5 -13z"/>
<path d="M4503 2960 c0 -25 -3 -51 -7 -58 -4 -8 2 -16 18 -22 46 -17 28 -50
-27 -50 -17 0 -19 -2 -8 -9 11 -7 10 -14 -8 -40 -12 -17 -18 -31 -12 -31 6 0
11 -12 11 -27 0 -58 16 -61 64 -14 l45 44 41 -36 c40 -37 60 -46 60 -27 0 6
-8 10 -18 10 -32 0 -89 77 -78 106 3 8 13 14 23 14 13 0 14 3 5 12 -18 18 -15
26 18 43 17 9 30 23 30 32 0 12 -6 9 -26 -11 -33 -32 -42 -33 -54 -3 -7 17 -9
18 -9 5 -1 -10 -7 -18 -15 -18 -22 0 -40 29 -47 79 l-7 46 1 -45z m85 -119
c-5 -24 -38 -27 -38 -3 0 10 3 21 6 25 11 11 35 -5 32 -22z m-34 -27 c26 -10
19 -50 -15 -89 -37 -42 -59 -45 -59 -9 0 27 14 59 38 87 17 20 15 19 36 11z"/>
<path d="M4570 2962 c0 -4 4 -13 9 -20 7 -11 9 -11 14 1 3 9 -1 18 -9 21 -8 3
-14 2 -14 -2z"/>
<path d="M210 2941 c14 -27 13 -71 -2 -71 -7 0 -25 12 -40 27 -23 22 -28 23
-28 10 0 -10 11 -22 24 -27 31 -11 41 -27 27 -44 -9 -10 -7 -15 9 -19 21 -5
26 -28 11 -55 -7 -14 -5 -17 14 -17 20 0 21 3 12 23 -8 18 -7 26 7 40 16 16
19 15 47 -16 20 -23 29 -43 29 -67 0 -19 -5 -35 -11 -35 -5 0 -7 -5 -4 -10 12
-19 25 1 25 37 0 28 3 34 16 29 11 -4 8 5 -11 30 -22 29 -25 38 -14 45 10 6 7
9 -11 9 -26 0 -50 16 -50 32 0 5 11 13 24 18 19 7 22 14 18 35 l-5 27 -13 -32
c-19 -44 -48 -38 -52 13 -2 24 -8 37 -18 37 -11 0 -12 -4 -4 -19z m46 -110
c-10 -16 -36 -13 -43 5 -8 22 18 37 36 20 7 -8 10 -19 7 -25z"/>
<path d="M40 2869 c0 -5 5 -7 10 -4 6 3 10 8 10 11 0 2 -4 4 -10 4 -5 0 -10
-5 -10 -11z"/>
<path d="M4010 2849 c0 -5 5 -7 10 -4 6 3 10 8 10 11 0 2 -4 4 -10 4 -5 0 -10
-5 -10 -11z"/>
<path d="M570 2829 c0 -5 5 -7 10 -4 6 3 10 8 10 11 0 2 -4 4 -10 4 -5 0 -10
-5 -10 -11z"/>
<path d="M4218 2828 c7 -7 13 -32 14 -57 1 -39 2 -41 5 -12 6 42 -4 81 -19 81
-9 0 -9 -3 0 -12z"/>
<path d="M140 2810 c0 -5 4 -10 9 -10 6 0 13 5 16 10 3 6 -1 10 -9 10 -9 0
-16 -4 -16 -10z"/>
<path d="M4630 2816 c0 -2 6 -9 14 -15 10 -9 15 -8 20 4 4 10 -1 15 -14 15
-11 0 -20 -2 -20 -4z"/>
<path d="M644 2744 c3 -9 6 -21 7 -27 0 -7 4 -3 9 8 13 29 12 35 -6 35 -11 0
-14 -5 -10 -16z"/>
<path d="M4138 2724 c5 -41 7 -40 15 4 5 22 3 32 -6 32 -9 0 -12 -11 -9 -36z"/>
<path d="M265 2710 c10 -11 20 -20 23 -20 3 0 -3 9 -13 20 -10 11 -20 20 -23
20 -3 0 3 -9 13 -20z"/>
<path d="M120 2690 c0 -5 5 -10 10 -10 6 0 10 5 10 10 0 6 -4 10 -10 10 -5 0
-10 -4 -10 -10z"/>
<path d="M730 2665 c-29 -31 -60 -33 -60 -4 0 21 0 21 -19 -2 -17 -21 -22 -22
-40 -11 -18 11 -21 10 -21 -7 0 -11 5 -21 12 -23 6 -2 12 -13 13 -24 4 -36 16
-52 36 -47 10 3 19 10 19 15 0 6 11 7 25 4 25 -6 25 -6 8 12 -10 11 -22 15
-27 11 -29 -26 -69 9 -45 37 15 19 38 18 46 -1 5 -14 8 -14 22 -2 9 8 28 21
43 28 18 9 24 19 19 27 -5 9 -14 6 -31 -13z"/>
<path d="M4040 2671 c0 -5 16 -18 35 -30 25 -14 35 -27 35 -45 0 -21 -6 -26
-35 -32 -19 -3 -35 -10 -35 -15 0 -12 1 -12 45 7 43 18 55 12 36 -19 -14 -22
-14 -22 8 -3 11 11 24 16 28 13 9 -10 32 25 33 51 0 12 6 22 13 22 7 0 12 14
13 33 1 29 0 30 -9 10 -12 -27 -42 -30 -55 -7 -8 15 -10 15 -15 0 -9 -22 -40
-20 -62 4 -19 21 -35 26 -35 11z m130 -46 c18 -21 5 -47 -22 -43 -26 3 -37 36
-16 49 18 12 24 11 38 -6z"/>
<path d="M500 2650 c0 -13 5 -18 15 -14 12 5 13 10 4 20 -15 19 -19 18 -19 -6z"/>
<path d="M4280 2655 c-9 -10 -9 -15 -1 -15 16 0 13 -20 -6 -44 l-17 -21 21 20
c24 22 41 75 25 75 -5 0 -15 -7 -22 -15z"/>
<path d="M890 2630 c0 -5 5 -10 10 -10 6 0 10 5 10 10 0 6 -4 10 -10 10 -5 0
-10 -4 -10 -10z"/>
<path d="M730 2555 c0 -2 9 -9 20 -15 16 -9 20 -8 20 5 0 8 -9 15 -20 15 -11
0 -20 -2 -20 -5z"/>
<path d="M536 2503 c-12 -12 -6 -21 13 -16 20 5 61 -38 61 -66 0 -10 5 -7 13
9 16 30 11 51 -9 43 -8 -3 -22 1 -32 9 -26 22 -38 28 -46 21z"/>
<path d="M4000 2495 c-10 -12 -10 -15 2 -15 8 0 15 7 15 15 0 8 -1 15 -2 15
-2 0 -8 -7 -15 -15z"/>
<path d="M4245 2500 c-3 -5 -2 -10 4 -10 5 0 12 -8 14 -17 3 -11 5 -7 6 10 1
27 -12 36 -24 17z"/>
<path d="M790 2490 c0 -5 5 -10 11 -10 5 0 7 5 4 10 -3 6 -8 10 -11 10 -2 0
-4 -4 -4 -10z"/>
<path d="M4215 2479 c-4 -6 -13 -8 -21 -5 -7 3 -16 1 -19 -4 -3 -5 -13 -6 -23
-3 -9 3 -5 -4 10 -15 30 -25 38 -27 38 -10 0 6 7 20 17 30 9 10 13 18 10 18
-3 0 -9 -5 -12 -11z"/>
<path d="M675 2470 c3 -5 8 -10 11 -10 2 0 4 5 4 10 0 6 -5 10 -11 10 -5 0 -7
-4 -4 -10z"/>
<path d="M4110 2470 c0 -5 5 -10 10 -10 6 0 10 5 10 10 0 6 -4 10 -10 10 -5 0
-10 -4 -10 -10z"/>
<path d="M4183 2395 c-10 -10 -9 -16 0 -24 9 -7 21 -3 42 15 20 16 22 21 7 12
-17 -10 -25 -10 -30 -2 -5 9 -10 8 -19 -1z"/>
<path d="M592 2393 c-10 -4 -10 -8 -1 -19 9 -11 15 -11 25 -3 23 19 6 34 -24
22z"/>
<path d="M910 2230 c-9 -6 -10 -10 -3 -10 6 0 14 -10 16 -22 3 -17 5 -14 6 10
1 36 2 35 -19 22z"/>
<path d="M3878 2223 c7 -3 16 -2 19 1 4 3 -2 6 -13 5 -11 0 -14 -3 -6 -6z"/>
<path d="M4343 2165 c-26 -24 -43 -44 -38 -45 6 0 30 20 54 45 57 58 47 58
-16 0z"/>
<path d="M4458 2156 c-18 -13 -14 -26 7 -26 6 0 11 9 11 20 0 11 0 20 -1 20 0
0 -8 -7 -17 -14z"/>
<path d="M330 2146 c0 -9 7 -16 16 -16 9 0 14 5 12 12 -6 18 -28 21 -28 4z"/>
<path d="M736 2134 c-5 -14 -4 -15 9 -4 17 14 19 20 6 20 -5 0 -12 -7 -15 -16z"/>
<path d="M4050 2143 c0 -5 5 -15 10 -23 8 -12 10 -11 10 8 0 12 -4 22 -10 22
-5 0 -10 -3 -10 -7z"/>
<path d="M3977 2109 c7 -25 19 -33 26 -16 3 8 -3 18 -13 25 -15 9 -17 8 -13
-9z"/>
<path d="M790 2106 c0 -2 7 -9 15 -16 12 -10 15 -10 15 4 0 9 -7 16 -15 16 -8
0 -15 -2 -15 -4z"/>
<path d="M239 2073 c-13 -16 -12 -17 4 -4 9 7 17 15 17 17 0 8 -8 3 -21 -13z"/>
<path d="M372 2039 c2 -6 8 -10 13 -10 5 0 11 4 13 10 2 6 -4 11 -13 11 -9 0
-15 -5 -13 -11z"/>
<path d="M3897 2031 c-3 -14 0 -21 9 -21 16 0 18 9 5 28 -6 10 -10 9 -14 -7z"/>
<path d="M4408 2028 c3 -12 7 -17 10 -10 2 6 11 12 20 12 15 0 15 2 2 10 -26
17 -39 12 -32 -12z"/>
<path d="M210 2030 c0 -5 5 -10 10 -10 6 0 10 5 10 10 0 6 -4 10 -10 10 -5 0
-10 -4 -10 -10z"/>
<path d="M886 2025 c-3 -9 0 -15 9 -15 9 0 12 6 9 15 -4 8 -7 15 -9 15 -2 0
-5 -7 -9 -15z"/>
<path d="M4575 2030 c-3 -5 -1 -10 4 -10 6 0 11 5 11 10 0 6 -2 10 -4 10 -3 0
-8 -4 -11 -10z"/>
<path d="M1005 2010 c4 -6 11 -8 16 -5 14 9 11 15 -7 15 -8 0 -12 -5 -9 -10z"/>
<path d="M3780 2010 c0 -5 5 -10 10 -10 6 0 10 5 10 10 0 6 -4 10 -10 10 -5 0
-10 -4 -10 -10z"/>
<path d="M797 1940 c3 -11 12 -20 21 -20 13 0 12 3 -3 20 -10 11 -19 20 -21
20 -1 0 0 -9 3 -20z"/>
<path d="M900 1930 c0 -5 5 -10 10 -10 6 0 10 5 10 10 0 6 -4 10 -10 10 -5 0
-10 -4 -10 -10z"/>
<path d="M3880 1930 c0 -5 4 -10 9 -10 6 0 13 5 16 10 3 6 -1 10 -9 10 -9 0
-16 -4 -16 -10z"/>
<path d="M3970 1930 l-25 -8 28 -1 c15 -1 27 4 27 9 0 6 -1 10 -2 9 -2 -1 -14
-5 -28 -9z"/>
<path d="M4415 1930 c-3 -5 -1 -10 4 -10 6 0 11 5 11 10 0 6 -2 10 -4 10 -3 0
-8 -4 -11 -10z"/>
<path d="M1055 1870 c-3 -5 -1 -10 4 -10 6 0 11 5 11 10 0 6 -2 10 -4 10 -3 0
-8 -4 -11 -10z"/>
<path d="M3730 1870 c0 -5 5 -10 11 -10 5 0 7 5 4 10 -3 6 -8 10 -11 10 -2 0
-4 -4 -4 -10z"/>
<path d="M3830 1822 c0 -7 -7 -12 -15 -12 -9 0 -15 -9 -15 -24 0 -13 -7 -29
-15 -36 -19 -16 -10 -30 18 -29 12 0 16 3 10 6 -20 8 -15 32 13 60 18 18 22
29 15 36 -8 8 -11 8 -11 -1z"/>
<path d="M955 1810 c-3 -5 1 -10 9 -10 8 0 20 -8 25 -17 9 -16 10 -16 11 3 0
12 -7 25 -16 28 -21 8 -22 8 -29 -4z"/>
<path d="M899 1793 c5 -10 22 -29 38 -43 l28 -25 -27 31 c-16 16 -28 35 -28
42 0 7 -5 12 -10 12 -7 0 -7 -6 -1 -17z"/>
<path d="M3883 1784 c-12 -26 -12 -26 7 -9 20 18 26 35 13 35 -5 0 -13 -12
-20 -26z"/>
<path d="M1000 1747 c0 -8 -6 -17 -12 -20 -7 -2 -1 -6 15 -9 30 -6 37 11 12
32 -12 10 -15 10 -15 -3z"/>
<path d="M1505 1690 c-3 -5 -1 -10 4 -10 6 0 11 5 11 10 0 6 -2 10 -4 10 -3 0
-8 -4 -11 -10z"/>
<path d="M3280 1684 c0 -8 5 -12 10 -9 6 4 8 11 5 16 -9 14 -15 11 -15 -7z"/>
<path d="M1376 1610 c-8 -43 -34 -50 -59 -16 -15 20 -22 24 -28 15 -5 -9 2
-19 22 -31 42 -25 35 -52 -13 -56 -26 -2 -35 -7 -32 -16 4 -11 12 -11 35 -3
43 17 61 -4 30 -37 l-22 -23 25 4 c17 4 26 12 26 23 0 19 33 36 50 25 5 -3 15
-24 21 -46 8 -24 16 -36 22 -30 5 5 4 17 -2 30 -10 18 -9 21 6 21 11 1 4 7
-15 15 -41 18 -42 57 -2 65 14 3 26 12 26 22 2 16 0 16 -19 3 -44 -31 -81 -9
-58 34 6 11 7 22 2 25 -5 3 -11 -8 -15 -24z m21 -66 c7 -19 -20 -49 -36 -40
-12 8 -15 39 -4 49 12 12 33 7 40 -9z"/>
<path d="M1140 1590 c0 -5 5 -10 10 -10 6 0 10 5 10 10 0 6 -4 10 -10 10 -5 0
-10 -4 -10 -10z"/>
<path d="M3645 1590 c4 -6 11 -8 16 -5 14 9 11 15 -7 15 -8 0 -12 -5 -9 -10z"/>
<path d="M665 1570 c-3 -5 -1 -10 4 -10 6 0 11 5 11 10 0 6 -2 10 -4 10 -3 0
-8 -4 -11 -10z"/>
<path d="M4120 1565 c-11 -13 -10 -14 4 -9 9 3 16 10 16 15 0 13 -6 11 -20 -6z"/>
<path d="M2730 1500 c0 -5 7 -7 15 -4 8 4 15 8 15 10 0 2 -7 4 -15 4 -8 0 -15
-4 -15 -10z"/>
<path d="M836 1485 c4 -8 8 -15 10 -15 2 0 4 7 4 15 0 8 -4 15 -10 15 -5 0 -7
-7 -4 -15z"/>
<path d="M1555 1490 c-3 -5 -1 -10 4 -10 6 0 11 5 11 10 0 6 -2 10 -4 10 -3 0
-8 -4 -11 -10z"/>
<path d="M3230 1491 c0 -5 7 -12 16 -15 24 -9 27 -7 10 9 -17 17 -26 19 -26 6z"/>
<path d="M3950 1489 c0 -5 5 -7 10 -4 6 3 10 8 10 11 0 2 -4 4 -10 4 -5 0 -10
-5 -10 -11z"/>
<path d="M641 1452 c-9 -3 -5 -11 15 -27 35 -28 27 -55 -16 -55 -20 0 -30 -5
-30 -15 0 -12 5 -13 27 -4 14 5 32 8 40 5 19 -8 16 -40 -7 -61 -15 -14 -17
-21 -8 -26 8 -5 18 6 29 32 19 42 27 46 48 27 11 -11 13 -10 8 5 -10 26 17 32
51 12 37 -22 65 -69 57 -95 -4 -11 -2 -20 4 -20 22 0 10 49 -24 99 -19 28 -35
55 -35 61 0 6 -8 5 -20 -2 -16 -10 -23 -10 -36 4 -16 16 -16 18 0 42 16 25 16
26 -3 26 -13 0 -21 -8 -23 -22 -4 -31 -30 -33 -48 -5 -8 13 -21 22 -29 19z
m89 -71 c0 -11 -5 -23 -11 -27 -15 -9 -33 12 -26 30 9 23 37 20 37 -3z"/>
<path d="M4140 1445 c0 -8 7 -15 15 -15 8 0 15 4 15 9 0 5 -7 11 -15 15 -9 3
-15 0 -15 -9z"/>
<path d="M525 1441 c-3 -5 -1 -12 5 -16 5 -3 10 1 10 9 0 18 -6 21 -15 7z"/>
<path d="M3146 1424 l-38 -26 21 -19 c11 -10 23 -19 25 -19 6 0 46 75 46 85 0
10 -15 4 -54 -21z"/>
<path d="M4260 1440 c0 -5 5 -10 10 -10 6 0 10 5 10 10 0 6 -4 10 -10 10 -5 0
-10 -4 -10 -10z"/>
<path d="M916 1425 c4 -8 7 -15 9 -15 2 0 5 7 9 15 3 9 0 15 -9 15 -9 0 -12
-6 -9 -15z"/>
<path d="M1950 1426 c0 -22 17 -28 24 -10 9 22 8 24 -9 24 -8 0 -15 -6 -15
-14z"/>
<path d="M2824 1424 c3 -9 6 -18 6 -20 0 -2 5 -4 10 -4 6 0 10 9 10 20 0 12
-7 20 -16 20 -11 0 -14 -5 -10 -16z"/>
<path d="M2954 1427 c-8 -21 -3 -29 13 -19 8 5 9 13 3 22 -7 12 -10 12 -16 -3z"/>
<path d="M3866 1425 c4 -8 10 -12 15 -9 14 8 10 24 -6 24 -9 0 -12 -6 -9 -15z"/>
<path d="M1830 1420 c0 -5 5 -10 10 -10 6 0 10 5 10 10 0 6 -4 10 -10 10 -5 0
-10 -4 -10 -10z"/>
<path d="M3411 1400 c-12 -17 -26 -28 -32 -25 -5 4 -9 1 -9 -4 0 -6 4 -11 8
-11 9 0 44 36 56 58 13 23 0 12 -23 -18z"/>
<path d="M3992 1404 c15 -15 14 -20 -18 -65 -19 -27 -34 -51 -34 -53 0 -2 17
14 39 35 38 39 81 52 81 25 0 -7 -10 -29 -23 -47 -22 -32 -22 -35 -5 -35 12 0
18 8 18 21 0 12 7 30 15 41 15 19 15 19 35 -5 11 -13 20 -29 20 -37 0 -8 7
-14 15 -14 13 0 11 6 -6 29 -38 51 -14 71 53 46 9 -4 15 0 15 10 0 14 -8 16
-41 13 -23 -3 -48 -8 -56 -11 -9 -5 -36 7 -70 29 -30 19 -48 28 -38 18z"/>
<path d="M947 1389 c15 -18 6 -55 -20 -91 -21 -28 -16 -48 11 -47 11 0 12 3 5
6 -40 16 13 82 68 84 27 1 29 3 9 6 -14 3 -38 17 -55 31 -16 15 -24 20 -18 11z"/>
<path d="M3831 1376 c-13 -14 -35 -27 -50 -29 -21 -3 -19 -4 10 -6 25 -1 44
-10 65 -32 28 -30 28 -31 10 -45 -18 -12 -18 -14 -3 -14 27 0 32 28 10 53 -26
28 -35 67 -21 84 19 23 2 14 -21 -11z"/>
<path d="M1407 1369 c7 -7 15 -10 18 -7 3 3 -2 9 -12 12 -14 6 -15 5 -6 -5z"/>
<path d="M1785 1350 c10 -11 20 -20 23 -20 3 0 -3 9 -13 20 -10 11 -20 20 -23
20 -3 0 3 -9 13 -20z"/>
<path d="M3721 1347 c-9 -12 -8 -16 3 -20 19 -7 32 11 19 24 -6 6 -14 5 -22
-4z"/>
<path d="M1052 1338 c5 -15 28 -18 29 -3 0 6 -7 12 -17 13 -10 3 -15 -1 -12
-10z"/>
<path d="M750 1293 c0 -23 15 -39 23 -26 3 5 -1 17 -9 28 -14 18 -14 18 -14
-2z"/>
<path d="M1940 1270 c-9 -6 -10 -10 -3 -10 6 0 15 5 18 10 8 12 4 12 -15 0z"/>
<path d="M3930 1253 c0 -13 5 -23 10 -23 13 0 13 11 0 30 -8 12 -10 11 -10 -7z"/>
<path d="M4251 1254 c0 -11 3 -14 6 -6 3 7 2 16 -1 19 -3 4 -6 -2 -5 -13z"/>
<path d="M545 1250 c3 -5 8 -10 11 -10 2 0 4 5 4 10 0 6 -5 10 -11 10 -5 0 -7
-4 -4 -10z"/>
<path d="M900 1223 c0 -5 5 -15 10 -23 8 -13 10 -13 10 2 0 9 6 19 13 21 6 3
2 6 -10 6 -13 1 -23 -2 -23 -6z"/>
<path d="M3870 1220 c19 -13 30 -13 30 0 0 6 -10 10 -22 10 -19 0 -20 -2 -8
-10z"/>
<path d="M968 1213 c7 -3 16 -2 19 1 4 3 -2 6 -13 5 -11 0 -14 -3 -6 -6z"/>
<path d="M1970 1210 c0 -5 -9 -10 -20 -10 -48 0 4 -53 54 -55 26 0 32 3 28 15
-3 8 -11 19 -19 23 -7 4 -13 15 -13 22 0 8 -7 15 -15 15 -8 0 -15 -4 -15 -10z
m29 -34 c8 -10 9 -16 2 -21 -13 -7 -51 12 -51 25 0 15 36 12 49 -4z"/>
<path d="M2800 1200 c0 -11 -7 -20 -15 -20 -23 0 -18 -27 6 -33 15 -4 18 -2
10 7 -13 15 5 36 31 36 23 0 23 -16 1 -29 -10 -6 -13 -11 -7 -11 11 0 44 32
44 43 0 4 -9 7 -20 7 -11 0 -20 5 -20 10 0 6 -7 10 -15 10 -8 0 -15 -9 -15
-20z"/>
<path d="M705 1170 c3 -5 8 -10 11 -10 2 0 4 5 4 10 0 6 -5 10 -11 10 -5 0 -7
-4 -4 -10z"/>
<path d="M4080 1170 c0 -5 5 -10 10 -10 6 0 10 5 10 10 0 6 -4 10 -10 10 -5 0
-10 -4 -10 -10z"/>
<path d="M1157 1114 c3 -7 9 -14 14 -14 14 0 10 17 -5 23 -10 4 -13 1 -9 -9z"/>
<path d="M3631 1121 c-8 -5 -9 -11 -3 -15 5 -3 12 1 16 9 6 17 6 18 -13 6z"/>
<path d="M1000 1110 c0 -5 7 -10 15 -10 8 0 15 5 15 10 0 6 -7 10 -15 10 -8 0
-15 -4 -15 -10z"/>
<path d="M3770 1110 c0 -5 7 -10 15 -10 8 0 15 5 15 10 0 6 -7 10 -15 10 -8 0
-15 -4 -15 -10z"/>
<path d="M3030 1069 c0 -5 5 -7 10 -4 6 3 10 8 10 11 0 2 -4 4 -10 4 -5 0 -10
-5 -10 -11z"/>
<path d="M3084 1035 c32 -46 32 -90 1 -90 -13 0 -26 12 -36 33 -12 22 -18 28
-22 18 -3 -8 3 -22 13 -31 10 -9 16 -23 13 -31 -3 -9 2 -14 16 -14 25 0 29
-31 6 -50 -8 -7 -12 -17 -8 -22 3 -6 14 -1 24 13 15 20 22 22 36 13 10 -6 19
-23 21 -38 3 -25 12 -33 25 -20 4 4 -1 19 -10 34 -9 15 -14 34 -11 41 3 8 5
16 5 19 0 3 6 16 13 30 12 22 12 24 -2 12 -23 -18 -48 10 -48 54 0 19 -5 34
-12 34 -6 0 -20 8 -31 18 -14 12 -11 5 7 -23z m56 -115 c0 -13 -7 -20 -20 -20
-13 0 -20 7 -20 20 0 13 7 20 20 20 13 0 20 -7 20 -20z"/>
<path d="M1610 1032 c0 -10 -5 -23 -11 -29 -7 -7 -6 -12 5 -16 13 -5 16 1 16
28 0 19 -2 35 -5 35 -3 0 -5 -8 -5 -18z"/>
<path d="M1051 1016 c-9 -10 -8 -15 3 -19 8 -3 16 2 19 14 6 22 -6 25 -22 5z"/>
<path d="M3730 1010 c0 -13 5 -18 15 -14 12 5 13 10 4 20 -15 19 -19 18 -19
-6z"/>
<path d="M3185 1001 c-8 -27 -2 -36 13 -18 6 7 7 18 3 26 -7 10 -10 8 -16 -8z"/>
<path d="M1538 1003 c7 -3 16 -2 19 1 4 3 -2 6 -13 5 -11 0 -14 -3 -6 -6z"/>
<path d="M2893 988 c21 -20 37 -23 37 -8 0 6 -8 10 -18 10 -10 0 -22 3 -28 8
-5 4 -1 -1 9 -10z"/>
<path d="M1756 984 c-9 -22 -8 -24 9 -18 8 4 15 12 15 20 0 19 -16 18 -24 -2z"/>
<path d="M830 965 c-10 -12 -10 -15 2 -15 8 0 15 7 15 15 0 8 -1 15 -2 15 -2
0 -8 -7 -15 -15z"/>
<path d="M3960 960 c0 -5 5 -10 10 -10 6 0 10 5 10 10 0 6 -4 10 -10 10 -5 0
-10 -4 -10 -10z"/>
<path d="M3743 885 c0 -27 2 -38 4 -22 2 15 2 37 0 50 -2 12 -4 0 -4 -28z"/>
<path d="M1566 906 c7 -18 13 -20 34 -6 9 6 10 10 3 10 -6 0 -19 3 -27 6 -12
5 -15 2 -10 -10z"/>
<path d="M3205 910 c-11 -5 -17 -9 -13 -9 3 -1 13 -4 21 -7 8 -3 17 2 20 10 7
18 2 19 -28 6z"/>
<path d="M1845 850 c-3 -5 -1 -10 4 -10 6 0 11 5 11 10 0 6 -2 10 -4 10 -3 0
-8 -4 -11 -10z"/>
<path d="M2945 850 c-3 -5 -1 -10 4 -10 6 0 11 5 11 10 0 6 -2 10 -4 10 -3 0
-8 -4 -11 -10z"/>
<path d="M1632 837 c-9 -11 -10 -17 -2 -22 15 -9 23 -1 18 21 -3 15 -4 16 -16
1z"/>
<path d="M1060 790 c0 -5 5 -10 10 -10 6 0 10 5 10 10 0 6 -4 10 -10 10 -5 0
-10 -4 -10 -10z"/>
<path d="M3285 790 c-3 -5 -1 -10 4 -10 6 0 11 5 11 10 0 6 -2 10 -4 10 -3 0
-8 -4 -11 -10z"/>
<path d="M3720 790 c0 -5 5 -10 10 -10 6 0 10 5 10 10 0 6 -4 10 -10 10 -5 0
-10 -4 -10 -10z"/>
<path d="M1685 710 c4 -6 11 -8 16 -5 14 9 11 15 -7 15 -8 0 -12 -5 -9 -10z"/>
<path d="M3100 709 c0 -5 5 -7 10 -4 6 3 10 8 10 11 0 2 -4 4 -10 4 -5 0 -10
-5 -10 -11z"/>
</g>
</svg>
